<svg xmlns="http://www.w3.org/2000/svg" xmlns:xlink="http://www.w3.org/1999/xlink" width="50" zoomAndPan="magnify" viewBox="0 0 37.5 37.499999" height="50" preserveAspectRatio="xMidYMid meet" version="1.0"><defs><clipPath id="9d53c08526"><path d="M 5.59375 18 L 20 18 L 20 36.820312 L 5.59375 36.820312 Z M 5.59375 18 " clip-rule="nonzero"/></clipPath><clipPath id="0672173a24"><path d="M 16 18 L 31 18 L 31 36.820312 L 16 36.820312 Z M 16 18 " clip-rule="nonzero"/></clipPath><clipPath id="0570453246"><path d="M 5.59375 1 L 31.84375 1 L 31.84375 27 L 5.59375 27 Z M 5.59375 1 " clip-rule="nonzero"/></clipPath><clipPath id="553d0bb765"><path d="M 5.59375 0.820312 L 31.84375 0.820312 L 31.84375 28 L 5.59375 28 Z M 5.59375 0.820312 " clip-rule="nonzero"/></clipPath></defs><g clip-path="url(#9d53c08526)"><path fill="#0f001f" d="M 14.851562 36.820312 L 11.527344 31.824219 L 5.90625 33.863281 L 11.003906 18.234375 L 19.949219 21.191406 L 14.851562 36.820312 " fill-opacity="1" fill-rule="nonzero"/></g><g clip-path="url(#0672173a24)"><path fill="#0f001f" d="M 21.933594 36.820312 L 25.261719 31.824219 L 30.882812 33.863281 L 25.785156 18.234375 L 16.839844 21.191406 L 21.933594 36.820312 " fill-opacity="1" fill-rule="nonzero"/></g><g clip-path="url(#0570453246)"><path fill="#0f001f" d="M 31.542969 14.019531 L 29.691406 15.769531 L 30.921875 18.007812 L 28.621094 19.09375 L 29.097656 21.605469 L 26.574219 21.921875 L 26.261719 24.457031 L 23.765625 23.976562 L 22.6875 26.292969 L 20.464844 25.054688 L 18.726562 26.921875 L 16.988281 25.054688 L 14.761719 26.292969 L 13.6875 23.976562 L 11.191406 24.457031 L 10.875 21.921875 L 8.355469 21.605469 L 8.832031 19.09375 L 6.53125 18.007812 L 7.761719 15.769531 L 5.90625 14.019531 L 7.761719 12.269531 L 6.53125 10.03125 L 8.832031 8.949219 L 8.355469 6.4375 L 10.875 6.121094 L 11.191406 3.582031 L 13.6875 4.0625 L 14.761719 1.746094 L 16.988281 2.984375 L 18.726562 1.121094 L 20.464844 2.984375 L 22.6875 1.746094 L 23.765625 4.0625 L 26.261719 3.582031 L 26.574219 6.121094 L 29.097656 6.4375 L 28.621094 8.949219 L 30.921875 10.03125 L 29.691406 12.269531 L 31.542969 14.019531 " fill-opacity="1" fill-rule="nonzero"/></g><g clip-path="url(#553d0bb765)"><path fill="#5271ff" d="M 31.542969 14.019531 L 31.40625 13.871094 L 29.4375 15.730469 L 30.636719 17.914062 L 28.390625 18.976562 L 28.855469 21.429688 L 26.390625 21.738281 L 26.085938 24.214844 L 23.648438 23.746094 L 22.597656 26.007812 L 20.421875 24.800781 L 18.726562 26.621094 L 17.027344 24.800781 L 14.855469 26.007812 L 13.800781 23.746094 L 11.367188 24.214844 L 11.058594 21.738281 L 8.59375 21.429688 L 9.0625 18.976562 L 6.816406 17.914062 L 8.015625 15.730469 L 6.203125 14.019531 L 8.015625 12.3125 L 6.816406 10.125 L 9.0625 9.066406 L 8.597656 6.613281 L 11.058594 6.304688 L 11.367188 3.824219 L 13.800781 4.292969 L 14.855469 2.03125 L 17.027344 3.238281 L 18.726562 1.417969 L 20.421875 3.238281 L 22.597656 2.03125 L 23.648438 4.292969 L 26.085938 3.824219 L 26.394531 6.304688 L 28.855469 6.613281 L 28.390625 9.066406 L 30.636719 10.125 L 29.4375 12.3125 L 31.40625 14.167969 L 31.542969 14.019531 L 31.40625 13.871094 L 31.542969 14.019531 L 31.683594 13.871094 L 29.945312 12.230469 L 31.203125 9.941406 L 28.847656 8.832031 L 29.335938 6.261719 L 26.757812 5.9375 L 26.4375 3.339844 L 23.882812 3.832031 L 22.78125 1.460938 L 20.503906 2.726562 L 18.726562 0.820312 L 16.949219 2.726562 L 14.671875 1.464844 L 13.570312 3.832031 L 11.015625 3.339844 L 10.695312 5.9375 L 8.113281 6.261719 L 8.605469 8.832031 L 6.25 9.941406 L 7.507812 12.230469 L 5.609375 14.019531 L 7.507812 15.808594 L 6.25 18.101562 L 8.605469 19.210938 L 8.113281 21.78125 L 10.695312 22.105469 L 11.015625 24.699219 L 13.570312 24.207031 L 14.671875 26.578125 L 16.949219 25.3125 L 18.726562 27.222656 L 20.503906 25.3125 L 22.78125 26.578125 L 23.882812 24.207031 L 26.4375 24.699219 L 26.757812 22.105469 L 29.335938 21.78125 L 28.847656 19.210938 L 31.203125 18.101562 L 29.945312 15.808594 L 31.839844 14.019531 L 31.683594 13.871094 L 31.542969 14.019531 " fill-opacity="1" fill-rule="nonzero"/></g><path fill="#5271ff" d="M 28.066406 14.019531 C 28.066406 19.214844 23.886719 23.421875 18.726562 23.421875 C 13.566406 23.421875 9.382812 19.214844 9.382812 14.019531 C 9.382812 8.828125 13.566406 4.617188 18.726562 4.617188 C 23.886719 4.617188 28.066406 8.828125 28.066406 14.019531 " fill-opacity="1" fill-rule="nonzero"/><path fill="#0f001f" d="M 27.574219 14.019531 C 27.574219 18.9375 23.613281 22.925781 18.726562 22.925781 C 13.839844 22.925781 9.878906 18.9375 9.878906 14.019531 C 9.878906 9.101562 13.839844 5.113281 18.726562 5.113281 C 23.613281 5.113281 27.574219 9.101562 27.574219 14.019531 " fill-opacity="1" fill-rule="nonzero"/><path fill="#5271ff" d="M 16.367188 16.542969 L 16.367188 10.0625 L 15.351562 10.0625 L 15.351562 9.003906 L 16.367188 8.480469 L 17.839844 8.480469 L 17.839844 16.542969 L 16.367188 16.542969 " fill-opacity="1" fill-rule="nonzero"/><path fill="#5271ff" d="M 18.863281 16.242188 L 18.863281 15.21875 L 18.617188 15.21875 L 18.617188 15.53125 L 18.507812 15.53125 L 18.507812 15.144531 L 19.371094 15.144531 L 19.371094 15.53125 L 19.261719 15.53125 L 19.261719 15.21875 L 19.011719 15.21875 L 19.011719 16.242188 L 19.191406 16.242188 L 19.191406 16.320312 L 18.683594 16.320312 L 18.683594 16.242188 L 18.863281 16.242188 " fill-opacity="1" fill-rule="nonzero"/><path fill="#5271ff" d="M 19.441406 15.214844 L 19.441406 15.144531 L 19.683594 15.144531 L 19.683594 15.601562 C 19.710938 15.558594 19.742188 15.53125 19.777344 15.511719 C 19.8125 15.492188 19.855469 15.484375 19.90625 15.484375 C 19.996094 15.484375 20.0625 15.511719 20.101562 15.566406 C 20.140625 15.617188 20.164062 15.707031 20.164062 15.832031 L 20.164062 16.246094 L 20.273438 16.246094 L 20.273438 16.320312 L 19.921875 16.320312 L 19.921875 16.246094 L 20.035156 16.246094 L 20.035156 15.824219 C 20.035156 15.730469 20.023438 15.664062 20 15.628906 C 19.976562 15.59375 19.9375 15.574219 19.882812 15.574219 C 19.816406 15.574219 19.769531 15.59375 19.734375 15.640625 C 19.703125 15.683594 19.683594 15.746094 19.683594 15.832031 L 19.683594 16.246094 L 19.796875 16.246094 L 19.796875 16.320312 L 19.441406 16.320312 L 19.441406 16.246094 L 19.554688 16.246094 L 19.554688 15.214844 L 19.441406 15.214844 " fill-opacity="1" fill-rule="nonzero"/><path fill="#5271ff" d="M 20.890625 15.839844 L 20.890625 15.8125 C 20.890625 15.722656 20.875 15.652344 20.84375 15.609375 C 20.8125 15.5625 20.765625 15.539062 20.703125 15.539062 C 20.636719 15.539062 20.585938 15.5625 20.554688 15.609375 C 20.523438 15.65625 20.507812 15.734375 20.503906 15.839844 Z M 20.5 15.914062 L 20.5 15.941406 C 20.5 16.054688 20.519531 16.136719 20.558594 16.191406 C 20.59375 16.246094 20.648438 16.273438 20.726562 16.273438 C 20.789062 16.273438 20.835938 16.253906 20.875 16.210938 C 20.910156 16.167969 20.929688 16.113281 20.933594 16.035156 L 21.046875 16.035156 C 21.042969 16.136719 21.011719 16.214844 20.953125 16.265625 C 20.898438 16.320312 20.816406 16.34375 20.710938 16.34375 C 20.59375 16.34375 20.503906 16.308594 20.449219 16.238281 C 20.390625 16.164062 20.359375 16.054688 20.359375 15.90625 C 20.359375 15.757812 20.390625 15.648438 20.445312 15.574219 C 20.503906 15.503906 20.589844 15.464844 20.707031 15.464844 C 20.8125 15.464844 20.894531 15.5 20.949219 15.570312 C 21.007812 15.636719 21.035156 15.738281 21.035156 15.875 L 21.035156 15.914062 L 20.5 15.914062 " fill-opacity="1" fill-rule="nonzero"/><path fill="#5271ff" d="M 17.375 18.617188 C 17.375 18.484375 17.328125 18.390625 17.242188 18.328125 C 17.152344 18.265625 17.023438 18.234375 16.851562 18.234375 L 16.597656 18.234375 L 16.597656 19.035156 C 16.636719 19.035156 16.679688 19.039062 16.726562 19.042969 C 16.773438 19.042969 16.824219 19.042969 16.882812 19.042969 C 17.035156 19.042969 17.15625 19.007812 17.242188 18.929688 C 17.332031 18.855469 17.375 18.75 17.375 18.617188 Z M 17.242188 17.53125 C 17.242188 17.488281 17.234375 17.445312 17.222656 17.402344 C 17.207031 17.363281 17.183594 17.328125 17.148438 17.296875 C 17.113281 17.265625 17.070312 17.242188 17.015625 17.222656 C 16.960938 17.203125 16.894531 17.195312 16.816406 17.195312 C 16.769531 17.195312 16.726562 17.195312 16.691406 17.195312 C 16.65625 17.199219 16.625 17.199219 16.597656 17.203125 L 16.597656 17.941406 L 16.75 17.941406 C 16.910156 17.941406 17.03125 17.90625 17.117188 17.835938 C 17.203125 17.765625 17.242188 17.664062 17.242188 17.53125 Z M 17.746094 18.605469 C 17.746094 18.714844 17.726562 18.8125 17.691406 18.902344 C 17.65625 18.992188 17.601562 19.070312 17.527344 19.132812 C 17.453125 19.199219 17.355469 19.25 17.242188 19.285156 C 17.125 19.320312 16.988281 19.339844 16.824219 19.339844 C 16.785156 19.339844 16.738281 19.339844 16.683594 19.335938 C 16.628906 19.335938 16.574219 19.332031 16.519531 19.328125 C 16.464844 19.328125 16.410156 19.324219 16.359375 19.316406 C 16.3125 19.3125 16.265625 19.308594 16.230469 19.300781 L 16.230469 16.921875 C 16.304688 16.914062 16.394531 16.910156 16.496094 16.90625 C 16.597656 16.902344 16.707031 16.902344 16.816406 16.902344 C 16.941406 16.902344 17.054688 16.914062 17.152344 16.941406 C 17.253906 16.96875 17.335938 17.007812 17.40625 17.058594 C 17.476562 17.109375 17.527344 17.171875 17.5625 17.246094 C 17.597656 17.320312 17.617188 17.410156 17.617188 17.503906 C 17.617188 17.570312 17.609375 17.628906 17.589844 17.683594 C 17.574219 17.738281 17.550781 17.789062 17.519531 17.835938 C 17.488281 17.882812 17.453125 17.925781 17.410156 17.960938 C 17.367188 17.996094 17.324219 18.027344 17.273438 18.050781 C 17.339844 18.066406 17.402344 18.089844 17.457031 18.121094 C 17.515625 18.152344 17.566406 18.191406 17.609375 18.238281 C 17.652344 18.285156 17.683594 18.339844 17.710938 18.402344 C 17.734375 18.460938 17.746094 18.53125 17.746094 18.605469 " fill-opacity="1" fill-rule="nonzero"/><path fill="#5271ff" d="M 19.414062 19.328125 L 18.214844 19.328125 L 18.214844 16.910156 L 19.410156 16.910156 L 19.410156 17.222656 L 18.574219 17.222656 L 18.574219 17.957031 L 19.414062 17.957031 L 19.414062 18.269531 L 18.574219 18.269531 L 18.574219 19.019531 L 19.414062 19.019531 L 19.414062 19.328125 " fill-opacity="1" fill-rule="nonzero"/><path fill="#5271ff" d="M 21.316406 18.652344 C 21.316406 18.75 21.300781 18.84375 21.265625 18.929688 C 21.234375 19.015625 21.183594 19.089844 21.117188 19.15625 C 21.050781 19.21875 20.96875 19.269531 20.867188 19.308594 C 20.769531 19.34375 20.65625 19.363281 20.527344 19.363281 C 20.464844 19.363281 20.402344 19.359375 20.335938 19.351562 C 20.273438 19.34375 20.214844 19.332031 20.160156 19.316406 C 20.101562 19.300781 20.050781 19.28125 20.003906 19.261719 C 19.953125 19.238281 19.910156 19.21875 19.875 19.195312 L 19.875 18.820312 C 19.914062 18.847656 19.960938 18.878906 20.015625 18.90625 C 20.070312 18.933594 20.128906 18.957031 20.1875 18.980469 C 20.246094 19.003906 20.304688 19.019531 20.363281 19.035156 C 20.421875 19.046875 20.476562 19.054688 20.523438 19.054688 C 20.59375 19.054688 20.65625 19.042969 20.710938 19.027344 C 20.765625 19.007812 20.808594 18.984375 20.847656 18.949219 C 20.882812 18.914062 20.910156 18.875 20.929688 18.828125 C 20.945312 18.78125 20.957031 18.730469 20.957031 18.675781 C 20.957031 18.609375 20.945312 18.558594 20.921875 18.515625 C 20.898438 18.46875 20.867188 18.433594 20.824219 18.398438 C 20.78125 18.367188 20.730469 18.339844 20.671875 18.3125 C 20.613281 18.285156 20.546875 18.257812 20.472656 18.230469 C 20.371094 18.1875 20.28125 18.148438 20.203125 18.109375 C 20.128906 18.066406 20.0625 18.023438 20.007812 17.96875 C 19.953125 17.917969 19.914062 17.859375 19.886719 17.789062 C 19.859375 17.722656 19.84375 17.640625 19.84375 17.546875 C 19.84375 17.445312 19.863281 17.355469 19.90625 17.269531 C 19.945312 17.1875 20.003906 17.117188 20.074219 17.058594 C 20.144531 17 20.226562 16.957031 20.320312 16.925781 C 20.414062 16.894531 20.515625 16.878906 20.625 16.878906 C 20.738281 16.878906 20.84375 16.886719 20.9375 16.910156 C 21.03125 16.929688 21.113281 16.957031 21.191406 16.988281 L 21.191406 17.328125 C 21.15625 17.308594 21.113281 17.292969 21.066406 17.277344 C 21.019531 17.257812 20.96875 17.246094 20.917969 17.230469 C 20.867188 17.21875 20.8125 17.207031 20.761719 17.199219 C 20.710938 17.191406 20.660156 17.1875 20.613281 17.1875 C 20.546875 17.1875 20.488281 17.195312 20.4375 17.214844 C 20.386719 17.230469 20.34375 17.253906 20.308594 17.285156 C 20.273438 17.3125 20.246094 17.347656 20.230469 17.390625 C 20.210938 17.433594 20.203125 17.476562 20.203125 17.527344 C 20.203125 17.585938 20.214844 17.632812 20.238281 17.671875 C 20.261719 17.714844 20.296875 17.75 20.339844 17.78125 C 20.382812 17.8125 20.433594 17.84375 20.496094 17.871094 C 20.558594 17.894531 20.625 17.925781 20.703125 17.953125 C 20.796875 17.992188 20.882812 18.03125 20.960938 18.074219 C 21.035156 18.117188 21.101562 18.164062 21.152344 18.21875 C 21.207031 18.273438 21.246094 18.335938 21.277344 18.40625 C 21.304688 18.476562 21.316406 18.558594 21.316406 18.652344 " fill-opacity="1" fill-rule="nonzero"/><path fill="#5271ff" d="M 23.210938 17.222656 L 22.605469 17.222656 L 22.605469 19.328125 L 22.242188 19.328125 L 22.242188 17.222656 L 21.632812 17.222656 L 21.632812 16.910156 L 23.210938 16.910156 L 23.210938 17.222656 " fill-opacity="1" fill-rule="nonzero"/></svg>