<?xml version="1.0" encoding="UTF-8"?><svg id="Layer_1" xmlns="http://www.w3.org/2000/svg" xmlns:xlink="http://www.w3.org/1999/xlink" viewBox="0 0 50 50"><defs><style>.cls-1{fill:url(#linear-gradient-2);}.cls-2{fill:url(#linear-gradient-17);}.cls-3{fill:url(#linear-gradient-15);}.cls-4{fill:url(#linear-gradient-18);}.cls-5{fill:url(#linear-gradient-14);}.cls-6{fill:url(#linear-gradient-20);}.cls-7{fill:url(#linear-gradient-6);}.cls-8{fill:url(#linear-gradient-11);}.cls-9{fill:url(#linear-gradient-10);}.cls-10{fill:url(#linear-gradient-16);}.cls-11{fill:url(#linear-gradient-5);}.cls-12{fill:url(#linear-gradient-7);}.cls-13{fill:url(#linear-gradient-9);}.cls-14{fill:url(#linear-gradient-3);}.cls-15{fill:url(#linear-gradient);}.cls-16{fill:url(#linear-gradient-19);}.cls-17{fill:url(#linear-gradient-4);}.cls-18{fill:url(#linear-gradient-8);}.cls-19{fill:url(#linear-gradient-12);}.cls-20{fill:url(#linear-gradient-13);}</style><linearGradient id="linear-gradient" x1="6.04" y1="38.11" x2="41.29" y2="38.11" gradientTransform="matrix(1, 0, 0, 1, 0, 0)" gradientUnits="userSpaceOnUse"><stop offset="0" stop-color="#1a88c9"/><stop offset="1" stop-color="#3a449c"/></linearGradient><linearGradient id="linear-gradient-2" x1="14.91" y1="18.09" x2="37.24" y2="18.09" xlink:href="#linear-gradient"/><linearGradient id="linear-gradient-3" x1="21.16" y1="12.83" x2="30.99" y2="12.83" xlink:href="#linear-gradient"/><linearGradient id="linear-gradient-4" x1="23.45" y1="14.74" x2="28.78" y2="14.74" xlink:href="#linear-gradient"/><linearGradient id="linear-gradient-5" x1="9.27" y1="12.83" x2="14" y2="12.83" xlink:href="#linear-gradient"/><linearGradient id="linear-gradient-6" x1="8.28" y1="14.74" x2="14" y2="14.74" xlink:href="#linear-gradient"/><linearGradient id="linear-gradient-7" x1="7.37" y1="16.64" x2="14" y2="16.64" xlink:href="#linear-gradient"/><linearGradient id="linear-gradient-8" x1="6.38" y1="18.55" x2="14" y2="18.55" xlink:href="#linear-gradient"/><linearGradient id="linear-gradient-9" x1="5.46" y1="20.45" x2="14" y2="20.45" xlink:href="#linear-gradient"/><linearGradient id="linear-gradient-10" x1="4.53" y1="22.36" x2="14" y2="22.36" xlink:href="#linear-gradient"/><linearGradient id="linear-gradient-11" x1="25.96" y1="43.08" x2="27.33" y2="43.08" xlink:href="#linear-gradient"/><linearGradient id="linear-gradient-12" x1="43.11" y1="41.18" x2="44.48" y2="41.18" xlink:href="#linear-gradient"/><linearGradient id="linear-gradient-13" x1="39.75" y1="24.03" x2="41.12" y2="24.03" xlink:href="#linear-gradient"/><linearGradient id="linear-gradient-14" x1="43.11" y1="14.05" x2="44.48" y2="14.05" xlink:href="#linear-gradient"/><linearGradient id="linear-gradient-15" x1="34.49" y1="4.98" x2="35.87" y2="4.98" xlink:href="#linear-gradient"/><linearGradient id="linear-gradient-16" x1="17.35" y1="3.99" x2="18.72" y2="3.99" xlink:href="#linear-gradient"/><linearGradient id="linear-gradient-17" x1="5.46" y1="8.79" x2="6.83" y2="8.79" xlink:href="#linear-gradient"/><linearGradient id="linear-gradient-18" x1="11.18" y1="25.94" x2="12.55" y2="25.94" xlink:href="#linear-gradient"/><linearGradient id="linear-gradient-19" x1="4.55" y1="29.98" x2="9.27" y2="29.98" xlink:href="#linear-gradient"/><linearGradient id="linear-gradient-20" x1="39.68" y1="8.11" x2="45.47" y2="8.11" xlink:href="#linear-gradient"/></defs><path class="cls-15" d="M38.3,29.52c-.46,0-.91,.08-1.37,.3l-3.96,1.75c-2.82,1.3-6.02,1.3-8.84,0l-.76-.3c-5.64-2.51-12.19,.08-14.71,5.64l-2.59,5.79c-.08,.23,0,.53,.23,.61l7.54,3.35c.23,.08,.53,0,.61-.23,.84-1.91,1.45-3.28,2.21-5.03,.61-1.37,2.21-1.98,3.58-1.37,3.05,1.37,6.55,1.37,9.6,0l9.53-4.34c1.75-.76,2.51-2.97,1.37-4.65-.3-.99-1.37-1.52-2.44-1.52ZM13.92,45.68l-6.71-2.97,1.14-2.67,6.63,3.05-1.07,2.59Zm25.3-10.9l-9.53,4.34c-2.82,1.3-6.02,1.3-8.84,0-1.91-.84-4.04,0-4.88,1.91l-.53,1.14-6.63-3.05,.84-1.83c2.29-5.11,8.23-7.47,13.41-5.18l.76,.3c3.05,1.37,6.55,1.37,9.6,0l3.96-1.75c.3-.15,.61-.23,.91-.23,.76,0,1.45,.38,1.91,1.07,.76,1.22,.23,2.74-.99,3.28Z"/><path class="cls-1" d="M14.99,25.94s0,.08,.08,.08h0l.08,.08h.08l.08,.08h.08c22.4,0,21.41,0,21.57,0q.08,0,.08-.08h.08l.08-.08h0c.08-.08,.08-.15,.08-.23V10.39c-.08-.15-.15-.3-.38-.38-.08,0,.91,0-21.49,0-.23,0-.46,.23-.46,.46v15.32c.08,0,.08,.08,.08,.15Zm21.41-1.3l-7.16-6.1,7.16-7.01v13.11Zm-7.85-5.41l7.01,5.94H16.74l6.86-5.94,2.13,2.13c.15,.15,.46,.15,.69,0l2.13-2.13Zm-12.65,5.41V11.61l7.01,7.01-7.01,6.02Zm19.81-13.72l-9.68,9.45-9.45-9.45h19.13Z"/><path class="cls-14" d="M30.99,12.83c0-.23-.23-.46-.46-.46h-8.92c-.23,0-.46,.23-.46,.46s.23,.46,.46,.46h8.84c.3,0,.53-.15,.53-.46Z"/><path class="cls-17" d="M28.78,14.74c0-.23-.23-.46-.46-.46h-4.42c-.23,0-.46,.23-.46,.46s.23,.46,.46,.46h4.42c.23,0,.46-.15,.46-.46Z"/><path class="cls-11" d="M9.73,13.29h3.81c.23,0,.46-.23,.46-.46s-.23-.46-.46-.46h-3.81c-.23,0-.46,.23-.46,.46,0,.3,.23,.46,.46,.46Z"/><path class="cls-7" d="M8.81,15.19h4.72c.23,0,.46-.23,.46-.46s-.23-.46-.46-.46h-4.8c-.23,0-.46,.23-.46,.46,0,.3,.23,.46,.53,.46Z"/><path class="cls-12" d="M7.82,17.1h5.72c.23,0,.46-.23,.46-.46s-.23-.46-.46-.46H7.82c-.23,0-.46,.23-.46,.46,0,.3,.23,.46,.46,.46Z"/><path class="cls-18" d="M13.54,18.09H6.83c-.23,0-.46,.23-.46,.46s.23,.46,.46,.46h6.71c.23,0,.46-.23,.46-.46s-.23-.46-.46-.46Z"/><path class="cls-13" d="M5.92,20.91h7.62c.23,0,.46-.23,.46-.46s-.23-.46-.46-.46H5.92c-.23,0-.46,.23-.46,.46,0,.3,.23,.46,.46,.46Z"/><path class="cls-9" d="M5,22.81H13.54c.23,0,.46-.23,.46-.46s-.23-.46-.46-.46H5c-.23,0-.46,.23-.46,.46-.08,.3,.15,.46,.46,.46Z"/><path class="cls-8" d="M26.65,42.4c.38,0,.69,.31,.69,.69s-.31,.69-.69,.69-.69-.31-.69-.69,.31-.69,.69-.69Z"/><path class="cls-19" d="M43.79,40.49c.38,0,.69,.31,.69,.69s-.31,.69-.69,.69-.69-.31-.69-.69,.31-.69,.69-.69Z"/><path class="cls-20" d="M40.44,23.35c.38,0,.69,.31,.69,.69s-.31,.69-.69,.69-.69-.31-.69-.69,.31-.69,.69-.69Z"/><path class="cls-5" d="M43.79,13.36c.38,0,.69,.31,.69,.69s-.31,.69-.69,.69-.69-.31-.69-.69,.31-.69,.69-.69Z"/><path class="cls-3" d="M35.18,4.3c.38,0,.69,.31,.69,.69s-.31,.69-.69,.69-.69-.31-.69-.69,.31-.69,.69-.69Z"/><path class="cls-10" d="M18.03,3.31c.38,0,.69,.31,.69,.69s-.31,.69-.69,.69-.69-.31-.69-.69,.31-.69,.69-.69Z"/><path class="cls-2" d="M6.15,8.11c.38,0,.69,.31,.69,.69s-.31,.69-.69,.69-.69-.31-.69-.69,.31-.69,.69-.69Z"/><path class="cls-4" d="M11.86,25.25c.38,0,.69,.31,.69,.69s-.31,.69-.69,.69-.69-.31-.69-.69,.31-.69,.69-.69Z"/><path class="cls-16" d="M9.27,29.98c0-1.3-1.07-2.36-2.36-2.36s-2.36,1.07-2.36,2.36,1.07,2.36,2.36,2.36,2.36-1.07,2.36-2.36Zm-3.81,0c0-.76,.61-1.45,1.45-1.45s1.45,.61,1.45,1.45-.61,1.45-1.45,1.45-1.45-.69-1.45-1.45Z"/><path class="cls-6" d="M42.57,5.21c-1.6,0-2.9,1.3-2.9,2.9s1.3,2.9,2.9,2.9,2.9-1.3,2.9-2.9-1.3-2.9-2.9-2.9Zm0,4.8c-1.07,0-1.9-.84-1.9-1.91s.84-1.91,1.9-1.91,1.91,.84,1.91,1.91-.84,1.91-1.91,1.91Z"/></svg>