<?xml version="1.0" encoding="UTF-8"?><svg id="Layer_1" xmlns="http://www.w3.org/2000/svg" xmlns:xlink="http://www.w3.org/1999/xlink" viewBox="0 0 50 50"><defs><style>.cls-1{fill:url(#linear-gradient-2);}.cls-2{fill:url(#linear-gradient-6);}.cls-3{fill:url(#linear-gradient-11);}.cls-4{fill:url(#linear-gradient-10);}.cls-5{fill:url(#linear-gradient-5);}.cls-6{fill:url(#linear-gradient-7);}.cls-7{fill:url(#linear-gradient-9);}.cls-8{fill:url(#linear-gradient-3);}.cls-9{fill:url(#linear-gradient);}.cls-10{fill:url(#linear-gradient-4);}.cls-11{fill:url(#linear-gradient-8);}.cls-12{fill:url(#linear-gradient-12);}</style><linearGradient id="linear-gradient" x1="9.76" y1="25" x2="39.71" y2="25" gradientTransform="matrix(1, 0, 0, 1, 0, 0)" gradientUnits="userSpaceOnUse"><stop offset="0" stop-color="#1a88c9"/><stop offset="1" stop-color="#3a449c"/></linearGradient><linearGradient id="linear-gradient-2" x1="15.36" y1="18.57" x2="34.1" y2="18.57" xlink:href="#linear-gradient"/><linearGradient id="linear-gradient-3" x1="18.28" y1="18.53" x2="31.26" y2="18.53" xlink:href="#linear-gradient"/><linearGradient id="linear-gradient-4" x1="3.61" y1="31.93" x2="8.83" y2="31.93" xlink:href="#linear-gradient"/><linearGradient id="linear-gradient-5" x1="40.55" y1="25.25" x2="46.85" y2="25.25" xlink:href="#linear-gradient"/><linearGradient id="linear-gradient-6" x1="37.25" y1="5.05" x2="38.63" y2="5.05" xlink:href="#linear-gradient"/><linearGradient id="linear-gradient-7" x1="43.47" y1="14.65" x2="44.85" y2="14.65" xlink:href="#linear-gradient"/><linearGradient id="linear-gradient-8" x1="8.91" y1="5.59" x2="10.29" y2="5.59" xlink:href="#linear-gradient"/><linearGradient id="linear-gradient-9" x1="3.15" y1="16.11" x2="4.53" y2="16.11" xlink:href="#linear-gradient"/><linearGradient id="linear-gradient-10" x1="7.45" y1="24.79" x2="8.83" y2="24.79" xlink:href="#linear-gradient"/><linearGradient id="linear-gradient-11" x1="42.01" y1="37.69" x2="43.39" y2="37.69" xlink:href="#linear-gradient"/><linearGradient id="linear-gradient-12" x1="6.07" y1="42.99" x2="7.45" y2="42.99" xlink:href="#linear-gradient"/></defs><path class="cls-9" d="M24.73,4.13c-8.29,0-14.98,6.76-14.98,14.98,0,4.68,3.69,8.99,7.76,13.59-4.68,1.23-7.53,3.53-7.53,6.14,0,1.92,1.61,3.76,4.45,5.07,5.68,2.61,14.9,2.61,20.58,0,2.84-1.31,4.45-3.15,4.45-5.07,0-2.61-2.84-4.92-7.53-6.14,4.07-4.53,7.76-8.83,7.76-13.59,0-8.29-6.68-14.98-14.98-14.98Zm0,.92c7.76,0,14.05,6.3,14.05,14.05,0,6.91-9.14,13.44-14.05,20.97-4.91-7.45-13.98-14.13-13.98-20.97-.08-7.76,6.22-14.05,13.98-14.05Zm13.82,33.79c0,1.54-1.46,3.07-3.92,4.15-5.45,2.46-14.36,2.53-19.81,0-2.46-1.15-3.92-2.69-3.92-4.15,0-2.15,2.84-4.22,7.22-5.3,2.23,2.46,4.45,5.07,6.07,7.68,.08,.15,.23,.23,.38,.23h0c.15,0,.31-.08,.38-.23,1.69-2.69,3.92-5.22,6.14-7.68,4.53,1,7.45,3.07,7.45,5.3Z"/><path class="cls-1" d="M34.1,18.57c0-5.15-4.22-9.37-9.37-9.37s-9.37,4.22-9.37,9.37,4.22,9.37,9.37,9.37,9.37-4.15,9.37-9.37Zm-17.82,0c0-4.61,3.76-8.45,8.45-8.45s8.45,3.76,8.45,8.45-3.76,8.45-8.45,8.45-8.45-3.76-8.45-8.45Z"/><path class="cls-8" d="M31.26,18.57c0-3.61-2.92-6.53-6.53-6.53-.23,0-.46,.23-.46,.46s.23,.46,.46,.46c3.07,0,5.53,2.46,5.53,5.53s-2.46,5.53-5.53,5.53-5.53-2.46-5.53-5.53c0-.23-.23-.46-.46-.46s-.46,.23-.46,.46c0,3.61,2.92,6.53,6.53,6.53,3.53,.08,6.45-2.84,6.45-6.45Z"/><path class="cls-10" d="M6.22,29.32c-1.46,0-2.61,1.15-2.61,2.61s1.15,2.61,2.61,2.61,2.61-1.15,2.61-2.61-1.15-2.61-2.61-2.61Zm0,4.3c-.92,0-1.69-.77-1.69-1.69s.77-1.69,1.69-1.69,1.69,.77,1.69,1.69-.77,1.69-1.69,1.69Z"/><path class="cls-5" d="M43.7,22.1c-1.69,0-3.15,1.38-3.15,3.15s1.38,3.15,3.15,3.15,3.15-1.38,3.15-3.15-1.46-3.15-3.15-3.15Zm0,5.3c-1.23,0-2.15-1-2.15-2.15,0-1.23,1-2.15,2.15-2.15s2.15,1,2.15,2.15-1,2.15-2.15,2.15Z"/><path class="cls-2" d="M37.94,4.36c.38,0,.69,.31,.69,.69s-.31,.69-.69,.69-.69-.31-.69-.69,.31-.69,.69-.69Z"/><path class="cls-6" d="M44.16,13.96c.38,0,.69,.31,.69,.69s-.31,.69-.69,.69-.69-.31-.69-.69,.31-.69,.69-.69Z"/><path class="cls-11" d="M9.6,4.9c.38,0,.69,.31,.69,.69s-.31,.69-.69,.69-.69-.31-.69-.69,.31-.69,.69-.69Z"/><path class="cls-7" d="M3.84,15.42c.38,0,.69,.31,.69,.69s-.31,.69-.69,.69-.69-.31-.69-.69,.31-.69,.69-.69Z"/><path class="cls-4" d="M8.14,24.1c.38,0,.69,.31,.69,.69s-.31,.69-.69,.69-.69-.31-.69-.69,.31-.69,.69-.69Z"/><path class="cls-3" d="M42.7,37c.38,0,.69,.31,.69,.69s-.31,.69-.69,.69-.69-.31-.69-.69,.31-.69,.69-.69Z"/><path class="cls-12" d="M6.76,42.3c.38,0,.69,.31,.69,.69s-.31,.69-.69,.69-.69-.31-.69-.69,.31-.69,.69-.69Z"/></svg>