<?xml version="1.0" encoding="UTF-8"?><svg id="Layer_1" xmlns="http://www.w3.org/2000/svg" xmlns:xlink="http://www.w3.org/1999/xlink" viewBox="0 0 50 50"><defs><style>.cls-1{fill:url(#linear-gradient-2);}.cls-2{fill:url(#linear-gradient-15);}.cls-3{fill:url(#linear-gradient-14);}.cls-4{fill:url(#linear-gradient-6);}.cls-5{fill:url(#linear-gradient-11);}.cls-6{fill:url(#linear-gradient-10);}.cls-7{fill:url(#linear-gradient-16);}.cls-8{fill:url(#linear-gradient-5);}.cls-9{fill:url(#linear-gradient-7);}.cls-10{fill:url(#linear-gradient-9);}.cls-11{fill:url(#linear-gradient-3);}.cls-12{fill:url(#linear-gradient);}.cls-13{fill:url(#linear-gradient-4);}.cls-14{fill:url(#linear-gradient-8);}.cls-15{fill:url(#linear-gradient-12);}.cls-16{fill:url(#linear-gradient-13);}</style><linearGradient id="linear-gradient" x1="4.45" y1="25.9" x2="42.48" y2="25.9" gradientTransform="matrix(1, 0, 0, 1, 0, 0)" gradientUnits="userSpaceOnUse"><stop offset="0" stop-color="#1a88c9"/><stop offset="1" stop-color="#3a449c"/></linearGradient><linearGradient id="linear-gradient-2" x1="5.58" y1="35.33" x2="11.95" y2="35.33" xlink:href="#linear-gradient"/><linearGradient id="linear-gradient-3" x1="36.19" y1="5.89" x2="41" y2="5.89" xlink:href="#linear-gradient"/><linearGradient id="linear-gradient-4" x1="41" y1="27.95" x2="45.35" y2="27.95" xlink:href="#linear-gradient"/><linearGradient id="linear-gradient-5" x1="43.95" y1="36.73" x2="45.35" y2="36.73" xlink:href="#linear-gradient"/><linearGradient id="linear-gradient-6" x1="44.96" y1="9.08" x2="46.36" y2="9.08" xlink:href="#linear-gradient"/><linearGradient id="linear-gradient-7" x1="19.72" y1="4.72" x2="21.12" y2="4.72" xlink:href="#linear-gradient"/><linearGradient id="linear-gradient-8" x1="5.11" y1="5.19" x2="6.51" y2="5.19" xlink:href="#linear-gradient"/><linearGradient id="linear-gradient-9" x1="3.64" y1="25.54" x2="5.04" y2="25.54" xlink:href="#linear-gradient"/><linearGradient id="linear-gradient-10" x1="17.78" y1="35.8" x2="19.17" y2="35.8" xlink:href="#linear-gradient"/><linearGradient id="linear-gradient-11" x1="9.46" y1="44.03" x2="10.86" y2="44.03" xlink:href="#linear-gradient"/><linearGradient id="linear-gradient-12" x1="8.96" y1="24.11" x2="29.85" y2="24.11" xlink:href="#linear-gradient"/><linearGradient id="linear-gradient-13" x1="21.41" y1="13.95" x2="44.58" y2="13.95" xlink:href="#linear-gradient"/><linearGradient id="linear-gradient-14" x1="24.07" y1="7.83" x2="30.83" y2="7.83" xlink:href="#linear-gradient"/><linearGradient id="linear-gradient-15" x1="24.07" y1="9.77" x2="32.77" y2="9.77" xlink:href="#linear-gradient"/><linearGradient id="linear-gradient-16" x1="24.07" y1="11.72" x2="32.77" y2="11.72" xlink:href="#linear-gradient"/></defs><path class="cls-12" d="M39.37,38.75h0c2.87-2.87,2.87-7.46,0-10.33-2.87-2.87-7.46-2.87-10.33,0h0l-11.26-11.26h0c2.87-2.87,2.87-7.46,0-10.33-2.87-2.87-7.46-2.87-10.33,0l-.31,.39h0c-3.57,3.57-3.57,9.48,0,13.05l18.88,18.88c3.5,3.5,9.09,3.57,12.66,.31l2.02,2.02c.54,.54,.78,1.24,.78,1.94,0,1.55-1.24,2.8-2.8,2.8H22.36c-.7,0-1.24-.54-1.24-1.24s.54-1.24,1.24-1.24h4.58c.23,0,.47-.23,.47-.47s-.23-.47-.47-.47h-4.58c-1.24,0-2.17,1.01-2.17,2.17s1.01,2.18,2.17,2.18h16.39c2.1,0,3.73-1.71,3.73-3.73,0-1.01-.39-1.94-1.09-2.64l-2.02-2.02Zm-9.55-9.56c2.49-2.49,6.45-2.49,8.93,0,2.49,2.49,2.49,6.45,0,8.93h0l-8.93-8.93h0ZM17.08,7.52c2.49,2.49,2.49,6.45,0,8.93L8.14,7.52h0c2.49-2.41,6.45-2.41,8.93,0Zm9.63,30.92L7.83,19.56c-3.11-3.11-3.19-8.08-.31-11.34l30.53,30.53c-3.26,2.87-8.23,2.8-11.34-.31Z"/><path class="cls-1" d="M8.76,32.15c-1.71,0-3.19,1.4-3.19,3.18s1.4,3.19,3.19,3.19,3.18-1.4,3.18-3.19c-.08-1.79-1.48-3.18-3.18-3.18Zm0,5.28c-1.24,0-2.18-1.01-2.18-2.18s1.01-2.17,2.18-2.17,2.17,1.01,2.17,2.17-1.01,2.18-2.17,2.18Z"/><path class="cls-11" d="M38.59,8.3c1.32,0,2.41-1.09,2.41-2.41s-1.09-2.41-2.41-2.41-2.41,1.09-2.41,2.41,1.09,2.41,2.41,2.41Zm0-3.88c.78,0,1.48,.62,1.48,1.48s-.62,1.48-1.48,1.48-1.48-.62-1.48-1.48,.7-1.48,1.48-1.48Z"/><path class="cls-13" d="M43.18,25.78c-1.24,0-2.18,1.01-2.18,2.18s1.01,2.17,2.18,2.17,2.17-1.01,2.17-2.17-.93-2.18-2.17-2.18Zm0,3.42c-.7,0-1.24-.54-1.24-1.24s.54-1.24,1.24-1.24,1.24,.54,1.24,1.24-.54,1.24-1.24,1.24Z"/><path class="cls-8" d="M44.65,36.03c.39,0,.7,.31,.7,.7s-.31,.7-.7,.7-.7-.31-.7-.7,.31-.7,.7-.7Z"/><path class="cls-4" d="M45.66,8.38c.39,0,.7,.31,.7,.7s-.31,.7-.7,.7-.7-.31-.7-.7,.31-.7,.7-.7Z"/><path class="cls-9" d="M20.42,4.03c.39,0,.7,.31,.7,.7s-.31,.7-.7,.7-.7-.31-.7-.7,.31-.7,.7-.7Z"/><path class="cls-14" d="M5.81,4.49c.39,0,.7,.31,.7,.7s-.31,.7-.7,.7-.7-.31-.7-.7,.31-.7,.7-.7Z"/><path class="cls-10" d="M4.34,24.84c.39,0,.7,.31,.7,.7s-.31,.7-.7,.7-.7-.31-.7-.7,.31-.7,.7-.7Z"/><path class="cls-6" d="M18.47,35.1c.39,0,.7,.31,.7,.7s-.31,.7-.7,.7-.7-.31-.7-.7,.31-.7,.7-.7Z"/><path class="cls-5" d="M10.16,43.33c.39,0,.7,.31,.7,.7s-.31,.7-.7,.7-.7-.31-.7-.7,.31-.7,.7-.7Z"/><path class="cls-15" d="M29.04,34.4c.16,.16,.47,.16,.7,0,.16-.16,.16-.47,0-.7L9.77,13.81c-.16-.16-.47-.16-.7,0-.16,.16-.16,.47,0,.7l19.96,19.89Z"/><path class="cls-16" d="M23.91,15.68l-.23,2.02c-.08,.39,.31,.62,.7,.47l2.41-1.09c1.09,.23,2.25,.31,3.34,0,0,2.64,1.48,4.89,3.57,6.14h-4.27c-.23,0-.47,.23-.47,.47s.23,.47,.47,.47h7.92c.54,0,1.17-.08,1.71-.23l2.41,1.09c.31,.16,.7-.16,.7-.47l-.23-2.02c1.71-1.4,2.64-3.34,2.64-5.52,0-4.58-4.27-8.08-8.86-6.99,0-3.96-3.26-7.15-7.15-7.15s-7.15,3.19-7.15,7.15c-.16,2.33,.78,4.35,2.49,5.67Zm19.58,1.4c0,1.94-.93,3.73-2.49,4.97-.16,.08-.23,.31-.16,.47l.16,1.4-1.79-.85c-.08-.08-.23-.08-.31,0-.54,.16-1.09,.23-1.63,.23-3.5,0-6.37-2.95-6.21-6.45,2.33-.93,4.12-3.11,4.43-5.67,.54-.16,1.17-.23,1.71-.23,3.5-.08,6.29,2.72,6.29,6.14ZM28.42,3.95c3.42,0,6.21,2.8,6.21,6.21s-2.8,6.21-6.21,6.21c-.54,0-1.09-.08-1.63-.23h-.31l-1.79,.85,.16-1.4c0-.16-.08-.31-.16-.47-1.55-1.17-2.49-2.95-2.49-4.97,.08-3.42,2.8-6.21,6.21-6.21Z"/><path class="cls-3" d="M24.53,8.3h5.83c.23,0,.47-.23,.47-.47s-.23-.47-.47-.47h-5.83c-.23,0-.47,.23-.47,.47s.16,.47,.47,.47Z"/><path class="cls-2" d="M24.53,10.24h7.77c.23,0,.47-.23,.47-.47s-.23-.47-.47-.47h-7.77c-.23,0-.47,.23-.47,.47s.16,.47,.47,.47Z"/><path class="cls-7" d="M24.53,12.18h7.77c.23,0,.47-.23,.47-.47s-.23-.47-.47-.47h-7.77c-.23,0-.47,.23-.47,.47,0,.31,.16,.47,.47,.47Z"/></svg>