<?xml version="1.0" encoding="UTF-8"?><svg id="Layer_1" xmlns="http://www.w3.org/2000/svg" xmlns:xlink="http://www.w3.org/1999/xlink" viewBox="0 0 43.64 15.98"><defs><style>.cls-1{fill:url(#linear-gradient-2);}.cls-2{fill:url(#linear-gradient);}</style><linearGradient id="linear-gradient" x1="0" y1="7.99" x2="43.64" y2="7.99" gradientTransform="matrix(1, 0, 0, 1, 0, 0)" gradientUnits="userSpaceOnUse"><stop offset="0" stop-color="#00bff3"/><stop offset="1" stop-color="#5e3795"/></linearGradient><linearGradient id="linear-gradient-2" x1="21.5" y1="8.16" x2="24.35" y2="8.16" xlink:href="#linear-gradient"/></defs><path class="cls-2" d="M42.98,.87c-.25,0-.47,.14-.58,.35h-2.45c-.17,0-.33-.07-.45-.19l-.5-.49c-.11-.12-.27-.19-.44-.19H17.31c-.21-.02-.41-.04-.62-.07-.93-.19-1.87-.28-2.83-.28-1.09,0-2.06,.12-2.92,.35-.33,.09-.65,.19-.94,.32h-2.23c-.11-.18-.32-.31-.56-.31-.36,0-.66,.3-.66,.66s.3,.66,.66,.66c.24,0,.45-.12,.56-.31h.96c-.44,.3-.81,.66-1.1,1.07H3.26c-.12-.18-.33-.31-.56-.31-.37,0-.66,.3-.66,.66s.29,.66,.66,.66c.23,0,.44-.12,.56-.31h3.95c-.12,.24-.22,.5-.29,.76h-1.84c-.17,0-.33,.07-.44,.19l-.5,.49c-.12,.12-.28,.19-.45,.19H1.24c-.11-.21-.33-.35-.58-.35-.37,0-.66,.29-.66,.66s.29,.66,.66,.66c.21,0,.41-.11,.53-.27H3.98c.17,0,.33-.07,.45-.19l.5-.49c.11-.12,.27-.19,.44-.19h1.41c-.02,.18-.03,.36-.03,.55,0,.38,.03,.74,.1,1.06h-.9c-.12-.2-.33-.34-.58-.34-.36,0-.66,.3-.66,.66s.3,.66,.66,.66c.23,0,.42-.11,.54-.29h1.16c.13,.33,.32,.63,.55,.88,.29,.32,.6,.6,.94,.83h-2.35c-.16,0-.31-.07-.43-.18l-.26-.26c-.11-.11-.26-.18-.42-.18h-1.73c-.11-.18-.32-.31-.56-.31-.36,0-.66,.3-.66,.66s.3,.66,.66,.66c.24,0,.45-.12,.56-.31h1.44c.16,0,.31,.07,.43,.18l.25,.26c.12,.11,.27,.17,.43,.17h4.11c.72,.24,1.58,.47,2.59,.67,.92,.2,1.57,.37,1.98,.53,.39,.16,.6,.4,.6,.72,0,.28-.16,.49-.46,.62-.31,.14-.82,.21-1.53,.21-.83,0-1.69-.13-2.6-.38-.9-.26-1.71-.6-2.44-1.02l-.4,.91h-2.56c-.12-.18-.32-.31-.56-.31-.36,0-.66,.3-.66,.66s.3,.66,.66,.66c.24,0,.44-.12,.56-.31h2.25l-.78,1.76h-2.38c-.12-.18-.32-.31-.56-.31-.36,0-.66,.3-.66,.66s.3,.66,.66,.66c.24,0,.44-.12,.56-.31h2.77c.67,.34,1.47,.61,2.39,.83,.12,.03,.23,.06,.35,.08,1.1,.23,2.21,.35,3.36,.35,.97,0,1.85-.1,2.63-.28,.18-.05,.36-.07,.55-.07h6.53c1.7,0,3.21-.31,4.51-.93,.85-.4,1.58-.92,2.17-1.55,.33-.33,.62-.7,.86-1.1,.73-1.15,1.08-2.5,1.08-4.06,0-1.46-.31-2.74-.95-3.84h10.36c.11,.18,.32,.3,.55,.3,.37,0,.66-.3,.66-.66s-.29-.66-.66-.66c-.23,0-.44,.12-.55,.31h-3.79V1.05h1.15c.17,0,.33,.07,.44,.19l.5,.49c.12,.12,.28,.19,.45,.19h2.79c.12,.16,.32,.26,.53,.26,.37,0,.66-.29,.66-.65s-.29-.66-.66-.66ZM25.32,10.66c-.66,.64-1.55,.95-2.66,.95h-2.44c.04-.25,.06-.51,.06-.78,0-1.11-.3-1.98-.88-2.62-.59-.64-1.29-1.1-2.09-1.39-.8-.28-1.78-.53-2.94-.75-.9-.18-1.55-.34-1.95-.49-.39-.16-.58-.38-.58-.69,0-.64,.66-.96,1.98-.96,.5,0,1.01,.05,1.53,.16,.35,.07,.7,.16,1.06,.28,.54,.18,1.1,.41,1.67,.7l.29-.7h4.29c1.11,0,2,.31,2.66,.95,.66,.63,.99,1.52,.99,2.67s-.33,2.04-.99,2.67Z"/><path className="cls-1" d="M21.5,6.38v3.56h1.06c.54,0,.98-.16,1.3-.47,.33-.31,.49-.75,.49-1.31s-.16-1-.49-1.31c-.33-.31-.76-.47-1.3-.47h-1.06Z"/></svg>