<?xml version="1.0" encoding="UTF-8"?><svg id="Layer_1" xmlns="http://www.w3.org/2000/svg" xmlns:xlink="http://www.w3.org/1999/xlink" viewBox="0 0 147.72 22.01"><defs><style>.cls-1{fill:url(#linear-gradient-2);}.cls-2{fill:#fff;}.cls-3{fill:url(#linear-gradient-14);}.cls-4{fill:url(#linear-gradient-6);}.cls-5{fill:#00aeef;}.cls-6{fill:url(#linear-gradient-11);}.cls-7{fill:url(#linear-gradient-10);}.cls-8{fill:url(#linear-gradient-5);}.cls-9{fill:url(#linear-gradient-7);}.cls-10{fill:url(#linear-gradient-9);}.cls-11{fill:url(#linear-gradient-3);}.cls-12{fill:url(#linear-gradient);}.cls-13{fill:url(#linear-gradient-4);}.cls-14{fill:url(#linear-gradient-8);}.cls-15{fill:url(#linear-gradient-12);}.cls-16{fill:url(#linear-gradient-13);}</style><linearGradient id="linear-gradient" x1="47.38" y1="5.22" x2="57.33" y2="5.22" gradientTransform="matrix(1, 0, 0, 1, 0, 0)" gradientUnits="userSpaceOnUse"><stop offset="0" stop-color="#4471b7"/><stop offset="1" stop-color="#56c9e9"/></linearGradient><linearGradient id="linear-gradient-2" x1="48.92" y1="1.75" x2="60.13" y2="1.75" xlink:href="#linear-gradient"/><linearGradient id="linear-gradient-3" x1="9.04" y1="1.41" x2="15.1" y2="1.41" xlink:href="#linear-gradient"/><linearGradient id="linear-gradient-4" x1="0" y1="6.64" x2="11.22" y2="6.64" xlink:href="#linear-gradient"/><linearGradient id="linear-gradient-5" x1="2.97" y1="11.7" x2="15.1" y2="11.7" xlink:href="#linear-gradient"/><linearGradient id="linear-gradient-6" x1="2.81" y1="3.85" x2="11.78" y2="3.85" xlink:href="#linear-gradient"/><linearGradient id="linear-gradient-7" x1="6.5" y1="8.99" x2="9.97" y2="8.99" xlink:href="#linear-gradient"/><linearGradient id="linear-gradient-8" x1="5.51" y1="16.41" x2="12.56" y2="16.41" xlink:href="#linear-gradient"/><linearGradient id="linear-gradient-9" x1="4.25" y1="19.8" x2="12.21" y2="19.8" xlink:href="#linear-gradient"/><linearGradient id="linear-gradient-10" x1="8.98" y1="11.01" x2="51.14" y2="11.01" xlink:href="#linear-gradient"/><linearGradient id="linear-gradient-11" x1="28.88" y1="11.01" x2="32.81" y2="11.01" xlink:href="#linear-gradient"/><linearGradient id="linear-gradient-12" x1="47.6" y1="12.74" x2="53.62" y2="12.74" xlink:href="#linear-gradient"/><linearGradient id="linear-gradient-13" x1="131.94" y1="12.87" x2="139.07" y2="12.87" xlink:href="#linear-gradient"/><linearGradient id="linear-gradient-14" x1="141.7" y1="12.74" x2="147.72" y2="12.74" xlink:href="#linear-gradient"/></defs><g><path className="cls-12" d="M55.66,5.7c.16,.26,.44,.43,.77,.43,.5,0,.91-.41,.91-.91s-.41-.91-.91-.91c-.32,0-.61,.17-.77,.43h-8.28v.96h8.28Z"/><path className="cls-1" d="M53.74,.74l.68,.68c.16,.16,.38,.25,.61,.25h3.38c.15-.29,.45-.48,.8-.48,.5,0,.91,.41,.91,.91s-.41,.91-.91,.91c-.3,0-.56-.15-.73-.37h-3.86c-.23,0-.45-.09-.61-.25l-.68-.68c-.16-.16-.38-.25-.61-.25h-3.81V.48h4.21c.23,0,.45,.09,.61,.25Z"/><path className="cls-11" d="M9.94,.5c-.5,0-.91,.41-.91,.91s.41,.91,.91,.91c.32,0,.61-.17,.77-.43h4.38V.93h-4.38c-.16-.26-.44-.43-.77-.43Z"/><path className="cls-13" d="M6.39,5.63l-.68,.68c-.16,.16-.38,.25-.61,.25H1.71c-.15-.29-.45-.48-.8-.48-.5,0-.91,.41-.91,.91s.41,.91,.91,.91c.3,0,.56-.15,.73-.37h3.86c.23,0,.45-.09,.61-.25l.68-.68c.16-.16,.38-.25,.61-.25h3.81v-.96H7.01c-.23,0-.45,.09-.61,.25Z"/><path className="cls-8" d="M7.97,11.61l-.36-.36c-.16-.16-.37-.24-.59-.24h-2.38c-.16-.26-.44-.43-.77-.43-.5,0-.91,.41-.91,.91s.41,.91,.91,.91c.32,0,.61-.17,.77-.43h1.98c.22,0,.43,.09,.59,.24l.36,.36c.16,.16,.37,.24,.59,.24h6.94v-.96h-6.54c-.22,0-.43-.09-.59-.24Z"/><path className="cls-4" d="M3.72,2.94c-.5,0-.91,.41-.91,.91s.41,.91,.91,.91c.32,0,.61-.17,.77-.43h7.29v-.96H4.49c-.16-.26-.44-.43-.77-.43Z"/><path className="cls-9" d="M7.41,8.09c-.5,0-.91,.41-.91,.91s.41,.91,.91,.91c.31,0,.58-.16,.75-.39h1.81v-.96h-1.77c-.16-.28-.45-.46-.79-.46Z"/><path className="cls-14" d="M6.42,15.5c-.5,0-.91,.41-.91,.91s.41,.91,.91,.91c.32,0,.61-.17,.77-.43h5.38v-.96H7.19c-.16-.26-.44-.43-.77-.43Z"/><path className="cls-10" d="M5.16,18.89c-.5,0-.91,.41-.91,.91s.41,.91,.91,.91c.32,0,.61-.17,.77-.43h6.29v-.96H5.93c-.16-.26-.44-.43-.77-.43Z"/><g><path className="cls-7" d="M23.86,.48l-.86-.09c-1.28-.26-2.57-.39-3.89-.39-1.5,0-2.84,.16-4.02,.48-.47,.12-.92,.27-1.34,.45-1.48,.62-2.58,1.47-3.32,2.55s-1.12,2.29-1.12,3.61c0,1.52,.4,2.73,1.2,3.62,.8,.9,1.74,1.54,2.83,1.92,1.08,.39,2.44,.76,4.06,1.1,1.26,.27,2.16,.51,2.72,.72,.55,.23,.83,.55,.83,1,0,.38-.21,.67-.63,.86-.42,.19-1.12,.29-2.1,.29-1.14,0-2.33-.17-3.57-.53-1.24-.35-2.37-.82-3.37-1.4l-2.29,5.17c1.06,.66,2.42,1.19,4.07,1.58,.16,.04,.31,.07,.47,.11,1.51,.32,3.05,.48,4.62,.48,1.34,0,2.55-.13,3.63-.39,.25-.06,.5-.09,.75-.09h9c2.35,0,4.42-.43,6.21-1.28,1.17-.56,2.17-1.27,2.99-2.14,.45-.46,.84-.97,1.18-1.52,1-1.58,1.49-3.45,1.49-5.59,0-2.01-.43-3.78-1.32-5.29h9.05V.48H23.86Zm11.02,14.21c-.91,.88-2.13,1.31-3.66,1.31h-3.37c.06-.35,.09-.71,.09-1.08,0-1.52-.41-2.73-1.22-3.61-.82-.88-1.77-1.52-2.87-1.91-1.1-.39-2.45-.73-4.06-1.04-1.24-.24-2.14-.47-2.68-.67-.54-.21-.81-.53-.81-.95,0-.88,.91-1.32,2.73-1.32,.69,0,1.39,.07,2.11,.22,.47,.09,.96,.22,1.46,.38,.75,.25,1.52,.57,2.3,.96l.4-.96h5.91c1.52,0,2.75,.43,3.66,1.31,.92,.87,1.37,2.1,1.37,3.68s-.45,2.81-1.37,3.68Z"/><path className="cls-6" d="M28.88,8.55v4.9h1.46c.75,0,1.35-.21,1.79-.64,.45-.43,.67-1.03,.67-1.81s-.22-1.38-.67-1.81c-.45-.43-1.05-.64-1.79-.64h-1.46Z"/></g></g><path className="cls-15" d="M50.55,13.29l2.77,3.4c.26,.32,.28,.8,.03,1.13h0c-.32,.44-.93,.47-1.28,.07l-4.24-4.83c-.31-.36-.3-.92,.03-1.26l4.12-4.24c.36-.37,.94-.33,1.25,.09l.21,.29c.27,.36,.24,.87-.07,1.19l-2.78,2.94c-.31,.33-.33,.87-.04,1.22Z"/><path className="cls-16" d="M132.44,21.52h-.5l4.56-15.62c.29-1,1.16-1.68,2.14-1.68h.43l-4.49,15.61c-.29,1-1.16,1.69-2.14,1.69Z"/><path className="cls-3" d="M141.97,17.83h0c-.25-.34-.24-.83,.03-1.16l2.78-3.37c.3-.36,.28-.9-.04-1.24l-2.78-2.92c-.31-.33-.34-.85-.06-1.21l.21-.28c.31-.41,.89-.45,1.25-.08l4.11,4.23c.33,.34,.35,.91,.03,1.27l-4.24,4.83c-.36,.41-.97,.38-1.29-.06Z"/><path className="cls-5" d="M55.23,16.3c-.51-.16-.92-.36-1.21-.62l.46-1.03c.29,.23,.65,.42,1.07,.56s.85,.22,1.28,.22c.53,0,.92-.08,1.18-.25,.26-.17,.39-.39,.39-.67,0-.2-.07-.37-.22-.5s-.33-.24-.55-.31c-.22-.07-.53-.16-.91-.25-.54-.13-.98-.26-1.32-.39-.34-.13-.62-.33-.86-.6s-.36-.65-.36-1.11c0-.39,.11-.75,.32-1.07,.21-.32,.54-.58,.97-.77,.43-.19,.96-.28,1.58-.28,.43,0,.86,.05,1.28,.16,.42,.11,.78,.26,1.09,.47l-.42,1.03c-.31-.18-.64-.32-.98-.42s-.67-.14-.99-.14c-.52,0-.91,.09-1.16,.26s-.38,.41-.38,.7c0,.2,.07,.37,.22,.5,.15,.13,.33,.23,.55,.3,.22,.07,.53,.16,.91,.25,.53,.12,.96,.25,1.3,.38s.63,.33,.87,.6c.24,.27,.36,.64,.36,1.1,0,.39-.11,.75-.32,1.07s-.54,.57-.97,.76c-.43,.19-.96,.28-1.59,.28-.55,0-1.08-.08-1.59-.23Z"/><path className="cls-5" d="M65.31,11.29c.42,.23,.74,.56,.98,.98s.36,.9,.36,1.45-.12,1.03-.36,1.46c-.24,.42-.56,.75-.98,.98-.42,.23-.89,.35-1.42,.35-.73,0-1.31-.24-1.74-.73v2.63h-1.27v-7.4h1.21v.71c.21-.26,.47-.45,.78-.58,.31-.13,.65-.19,1.02-.19,.53,0,1,.12,1.42,.35Zm-.41,3.66c.3-.31,.45-.72,.45-1.23s-.15-.92-.45-1.23c-.3-.31-.69-.47-1.15-.47-.31,0-.58,.07-.82,.21-.24,.14-.44,.34-.58,.59-.14,.26-.21,.56-.21,.89s.07,.64,.21,.89c.14,.26,.34,.46,.58,.59,.24,.14,.52,.21,.82,.21,.47,0,.85-.16,1.15-.47Z"/><path className="cls-5" d="M71.69,11.52c.42,.38,.64,.96,.64,1.73v3.18h-1.2v-.66c-.16,.24-.38,.42-.67,.54s-.64,.19-1.04,.19-.76-.07-1.07-.21-.54-.33-.71-.58c-.17-.25-.25-.53-.25-.84,0-.49,.18-.88,.54-1.17,.36-.29,.93-.44,1.71-.44h1.4v-.08c0-.38-.11-.67-.34-.87s-.56-.3-1.01-.3c-.3,0-.6,.05-.9,.14-.29,.09-.54,.23-.75,.4l-.5-.92c.28-.22,.63-.38,1.03-.5,.4-.12,.82-.17,1.27-.17,.8,0,1.41,.19,1.83,.57Zm-1.16,3.84c.25-.15,.42-.35,.52-.63v-.63h-1.31c-.73,0-1.1,.24-1.1,.72,0,.23,.09,.41,.27,.55,.18,.14,.44,.2,.76,.2s.6-.07,.85-.22Z"/><path className="cls-5" d="M74.98,16.15c-.45-.24-.8-.57-1.05-.99-.25-.42-.38-.9-.38-1.44s.13-1.01,.38-1.43c.25-.42,.6-.75,1.04-.99,.44-.24,.95-.36,1.52-.36,.54,0,1,.11,1.41,.33,.4,.22,.71,.53,.91,.93l-.98,.57c-.16-.25-.35-.44-.58-.56-.23-.13-.49-.19-.77-.19-.47,0-.87,.15-1.18,.46-.31,.31-.47,.72-.47,1.23s.15,.93,.46,1.23c.31,.31,.7,.46,1.18,.46,.28,0,.53-.06,.77-.19,.23-.13,.43-.31,.58-.56l.98,.57c-.21,.41-.52,.72-.92,.94-.4,.22-.87,.33-1.4,.33-.56,0-1.07-.12-1.51-.36Z"/><path className="cls-5" d="M84.91,14.12h-4.26c.07,.4,.27,.72,.58,.95,.32,.23,.71,.35,1.17,.35,.6,0,1.09-.2,1.47-.59l.68,.78c-.24,.29-.55,.51-.92,.66-.37,.15-.79,.22-1.26,.22-.6,0-1.12-.12-1.58-.36s-.8-.57-1.05-.99c-.25-.42-.37-.9-.37-1.44s.12-1,.36-1.43c.24-.42,.57-.75,1-.99,.43-.24,.91-.36,1.44-.36s1,.12,1.42,.35,.74,.56,.98,.99c.23,.42,.35,.91,.35,1.47,0,.09,0,.21-.02,.38Zm-3.75-1.8c-.28,.24-.45,.56-.51,.96h3.08c-.05-.39-.22-.71-.5-.96-.28-.24-.62-.37-1.04-.37s-.75,.12-1.03,.36Z"/><path className="cls-5" d="M89.07,9.32h3.11c.76,0,1.43,.15,2.02,.44,.59,.29,1.05,.71,1.37,1.25,.33,.54,.49,1.16,.49,1.86s-.16,1.33-.49,1.86c-.33,.54-.78,.96-1.37,1.25-.59,.29-1.26,.44-2.02,.44h-3.11v-7.11Zm3.05,6c.52,0,.98-.1,1.38-.3s.7-.48,.91-.85c.21-.37,.32-.8,.32-1.29s-.11-.92-.32-1.29c-.21-.37-.52-.65-.91-.85s-.86-.3-1.38-.3h-1.73v4.88h1.73Z"/><path className="cls-5" d="M97.41,9.89c-.16-.15-.23-.33-.23-.54s.08-.4,.23-.54c.16-.15,.35-.22,.58-.22s.42,.07,.58,.21c.16,.14,.23,.31,.23,.52,0,.22-.08,.41-.23,.56s-.35,.23-.58,.23-.42-.07-.58-.22Zm-.06,1.11h1.27v5.43h-1.27v-5.43Z"/><path className="cls-5" d="M105.67,11.01v4.6c0,1.91-.98,2.87-2.93,2.87-.52,0-1.02-.07-1.48-.2s-.85-.32-1.16-.57l.57-.96c.24,.2,.54,.35,.9,.47,.36,.12,.73,.18,1.1,.18,.6,0,1.03-.14,1.31-.41,.28-.27,.42-.68,.42-1.24v-.28c-.22,.24-.48,.42-.79,.54s-.65,.18-1.03,.18c-.51,0-.98-.11-1.4-.33-.42-.22-.75-.53-.99-.93-.24-.4-.36-.86-.36-1.37s.12-.97,.36-1.37c.24-.4,.57-.7,.99-.92,.42-.22,.88-.33,1.4-.33,.39,0,.75,.06,1.07,.19,.32,.13,.59,.33,.81,.59v-.72h1.21Zm-1.71,3.67c.31-.29,.46-.66,.46-1.12s-.15-.82-.46-1.11c-.31-.28-.7-.43-1.18-.43s-.89,.14-1.19,.43c-.31,.28-.46,.65-.46,1.11s.15,.83,.46,1.12c.31,.29,.71,.43,1.19,.43s.88-.14,1.18-.43Z"/><path className="cls-5" d="M107.4,9.89c-.16-.15-.23-.33-.23-.54s.08-.4,.23-.54c.16-.15,.35-.22,.58-.22s.42,.07,.58,.21c.16,.14,.23,.31,.23,.52,0,.22-.08,.41-.23,.56s-.35,.23-.58,.23-.42-.07-.58-.22Zm-.06,1.11h1.27v5.43h-1.27v-5.43Z"/><path className="cls-2" d="M111.54,10.44h-2.36v-1.12h6.04v1.12h-2.36v6h-1.32v-6Z"/><path className="cls-2" d="M120.16,14.12h-4.26c.07,.4,.27,.72,.58,.95,.32,.23,.71,.35,1.17,.35,.6,0,1.09-.2,1.47-.59l.68,.78c-.24,.29-.55,.51-.92,.66-.37,.15-.79,.22-1.26,.22-.6,0-1.12-.12-1.58-.36s-.8-.57-1.05-.99c-.25-.42-.37-.9-.37-1.44s.12-1,.36-1.43c.24-.42,.57-.75,1-.99,.43-.24,.91-.36,1.44-.36s1,.12,1.42,.35,.74,.56,.98,.99c.23,.42,.35,.91,.35,1.47,0,.09,0,.21-.02,.38Zm-3.75-1.8c-.28,.24-.45,.56-.51,.96h3.08c-.05-.39-.22-.71-.5-.96-.28-.24-.62-.37-1.04-.37s-.75,.12-1.03,.36Z"/><path className="cls-2" d="M122.37,16.15c-.45-.24-.8-.57-1.05-.99-.25-.42-.38-.9-.38-1.44s.13-1.01,.38-1.43c.25-.42,.6-.75,1.04-.99,.44-.24,.95-.36,1.52-.36,.54,0,1,.11,1.41,.33,.4,.22,.71,.53,.91,.93l-.98,.57c-.16-.25-.35-.44-.58-.56-.23-.13-.49-.19-.77-.19-.47,0-.87,.15-1.18,.46-.31,.31-.47,.72-.47,1.23s.15,.93,.46,1.23c.31,.31,.7,.46,1.18,.46,.28,0,.53-.06,.77-.19,.23-.13,.43-.31,.58-.56l.98,.57c-.21,.41-.52,.72-.92,.94-.4,.22-.87,.33-1.4,.33-.56,0-1.07-.12-1.51-.36Z"/><path className="cls-2" d="M131.98,11.54c.41,.4,.62,.99,.62,1.78v3.11h-1.27v-2.95c0-.47-.11-.83-.34-1.07-.22-.24-.54-.36-.96-.36-.47,0-.84,.14-1.11,.42-.27,.28-.41,.69-.41,1.21v2.74h-1.27v-7.54h1.27v2.74c.21-.22,.47-.39,.78-.51,.31-.12,.65-.18,1.03-.18,.68,0,1.23,.2,1.65,.6Z"/></svg>