<svg xmlns="http://www.w3.org/2000/svg" xmlns:xlink="http://www.w3.org/1999/xlink" width="400" zoomAndPan="magnify" viewBox="0 0 300 299.999988" height="400" preserveAspectRatio="xMidYMid meet" version="1.0"><defs><clipPath id="e31c1d28e9"><path d="M 179 105 L 295.675781 105 L 295.675781 274.769531 L 179 274.769531 Z M 179 105 " clip-rule="nonzero"/></clipPath><clipPath id="cb7bf24805"><path d="M 179 95 L 295.675781 95 L 295.675781 106 L 179 106 Z M 179 95 " clip-rule="nonzero"/></clipPath><clipPath id="dc48ffb1a1"><path d="M 69 270 L 166 270 L 166 274.769531 L 69 274.769531 Z M 69 270 " clip-rule="nonzero"/></clipPath><clipPath id="064bb58145"><path d="M 4.675781 68 L 231 68 L 231 218 L 4.675781 218 Z M 4.675781 68 " clip-rule="nonzero"/></clipPath><clipPath id="093dea7087"><path d="M 4.675781 217 L 231 217 L 231 239 L 4.675781 239 Z M 4.675781 217 " clip-rule="nonzero"/></clipPath><clipPath id="d131395081"><path d="M 148 25.019531 L 180 25.019531 L 180 69 L 148 69 Z M 148 25.019531 " clip-rule="nonzero"/></clipPath><clipPath id="5019bd1939"><path d="M 163 25.019531 L 165 25.019531 L 165 46 L 163 46 Z M 163 25.019531 " clip-rule="nonzero"/></clipPath><clipPath id="953f5b9a72"><path d="M 240 26 L 295.675781 26 L 295.675781 81 L 240 81 Z M 240 26 " clip-rule="nonzero"/></clipPath></defs><g clip-path="url(#e31c1d28e9)"><path fill="#16c6cc" d="M 179.628906 105.757812 L 295.675781 105.757812 L 295.675781 274.796875 L 179.628906 274.796875 Z M 179.628906 105.757812 " fill-opacity="1" fill-rule="nonzero"/></g><g clip-path="url(#cb7bf24805)"><path fill="#e6e5e5" d="M 179.628906 95.015625 L 295.675781 95.015625 L 295.675781 105.757812 L 179.628906 105.757812 Z M 179.628906 95.015625 " fill-opacity="1" fill-rule="nonzero"/></g><path fill="#242d3c" d="M 195.667969 121.886719 L 253.613281 121.886719 L 253.613281 124.707031 L 195.667969 124.707031 Z M 195.667969 121.886719 " fill-opacity="1" fill-rule="nonzero"/><path fill="#242d3c" d="M 214.828125 126.78125 L 246.929688 126.78125 L 246.929688 129.601562 L 214.828125 129.601562 Z M 214.828125 126.78125 " fill-opacity="1" fill-rule="nonzero"/><path fill="#242d3c" d="M 209.722656 131.671875 L 279.632812 131.671875 L 279.632812 134.492188 L 209.722656 134.492188 Z M 209.722656 131.671875 " fill-opacity="1" fill-rule="nonzero"/><path fill="#242d3c" d="M 209.722656 136.566406 L 219.933594 136.566406 L 219.933594 139.386719 L 209.722656 139.386719 Z M 209.722656 136.566406 " fill-opacity="1" fill-rule="nonzero"/><path fill="#242d3c" d="M 195.667969 148.675781 L 222.070312 148.675781 L 222.070312 151.496094 L 195.667969 151.496094 Z M 195.667969 148.675781 " fill-opacity="1" fill-rule="nonzero"/><path fill="#242d3c" d="M 209.722656 153.574219 L 275.351562 153.574219 L 275.351562 156.394531 L 209.722656 156.394531 Z M 209.722656 153.574219 " fill-opacity="1" fill-rule="nonzero"/><path fill="#242d3c" d="M 209.722656 158.46875 L 263.769531 158.46875 L 263.769531 161.289062 L 209.722656 161.289062 Z M 209.722656 158.46875 " fill-opacity="1" fill-rule="nonzero"/><path fill="#242d3c" d="M 195.667969 170.578125 L 239 170.578125 L 239 173.398438 L 195.667969 173.398438 Z M 195.667969 170.578125 " fill-opacity="1" fill-rule="nonzero"/><path fill="#242d3c" d="M 209.722656 175.472656 L 256.464844 175.472656 L 256.464844 178.289062 L 209.722656 178.289062 Z M 209.722656 175.472656 " fill-opacity="1" fill-rule="nonzero"/><path fill="#242d3c" d="M 209.722656 180.367188 L 222.066406 180.367188 L 222.066406 183.1875 L 209.722656 183.1875 Z M 209.722656 180.367188 " fill-opacity="1" fill-rule="nonzero"/><path fill="#242d3c" d="M 218.65625 185.261719 L 272.503906 185.261719 L 272.503906 188.078125 L 218.65625 188.078125 Z M 218.65625 185.261719 " fill-opacity="1" fill-rule="nonzero"/><path fill="#242d3c" d="M 209.722656 190.15625 L 227.589844 190.15625 L 227.589844 192.972656 L 209.722656 192.972656 Z M 209.722656 190.15625 " fill-opacity="1" fill-rule="nonzero"/><path fill="#242d3c" d="M 195.667969 202.265625 L 224.917969 202.265625 L 224.917969 205.082031 L 195.667969 205.082031 Z M 195.667969 202.265625 " fill-opacity="1" fill-rule="nonzero"/><path fill="#242d3c" d="M 209.855469 207.160156 L 246.925781 207.160156 L 246.925781 209.976562 L 209.855469 209.976562 Z M 209.855469 207.160156 " fill-opacity="1" fill-rule="nonzero"/><path fill="#242d3c" d="M 209.855469 212.050781 L 231.691406 212.050781 L 231.691406 214.871094 L 209.855469 214.871094 Z M 209.855469 212.050781 " fill-opacity="1" fill-rule="nonzero"/><path fill="#242d3c" d="M 195.667969 224.160156 L 263.769531 224.160156 L 263.769531 226.980469 L 195.667969 226.980469 Z M 195.667969 224.160156 " fill-opacity="1" fill-rule="nonzero"/><path fill="#242d3c" d="M 209.722656 229.058594 L 224.917969 229.058594 L 224.917969 231.878906 L 209.722656 231.878906 Z M 209.722656 229.058594 " fill-opacity="1" fill-rule="nonzero"/><path fill="#242d3c" d="M 209.722656 233.949219 L 241.851562 233.949219 L 241.851562 236.769531 L 209.722656 236.769531 Z M 209.722656 233.949219 " fill-opacity="1" fill-rule="nonzero"/><path fill="#242d3c" d="M 226.519531 238.84375 L 276.605469 238.84375 L 276.605469 241.664062 L 226.519531 241.664062 Z M 226.519531 238.84375 " fill-opacity="1" fill-rule="nonzero"/><path fill="#242d3c" d="M 195.667969 250.953125 L 235.011719 250.953125 L 235.011719 253.773438 L 195.667969 253.773438 Z M 195.667969 250.953125 " fill-opacity="1" fill-rule="nonzero"/><path fill="#242d3c" d="M 209.722656 255.847656 L 257.53125 255.847656 L 257.53125 258.664062 L 209.722656 258.664062 Z M 209.722656 255.847656 " fill-opacity="1" fill-rule="nonzero"/><path fill="#d9d8d7" d="M 149.070312 270.109375 L 86.292969 270.109375 L 91.996094 238.167969 L 143.355469 238.167969 Z M 149.070312 270.109375 " fill-opacity="1" fill-rule="nonzero"/><path fill="#cccbca" d="M 149.070312 270.109375 L 143.355469 238.167969 L 91.996094 238.167969 L 133.066406 270.109375 Z M 149.070312 270.109375 " fill-opacity="1" fill-rule="nonzero"/><g clip-path="url(#dc48ffb1a1)"><path fill="#e6e5e5" d="M 165.878906 274.796875 L 69.484375 274.796875 L 69.484375 273.046875 C 69.484375 272.296875 69.769531 271.542969 70.347656 270.972656 C 70.921875 270.394531 71.675781 270.109375 72.425781 270.109375 L 162.929688 270.109375 C 163.6875 270.109375 164.441406 270.394531 165.015625 270.972656 C 165.589844 271.542969 165.878906 272.296875 165.878906 273.046875 Z M 165.878906 274.796875 " fill-opacity="1" fill-rule="nonzero"/></g><g clip-path="url(#064bb58145)"><path fill="#242d3c" d="M 230.710938 217.519531 L 230.710938 73.496094 C 230.710938 70.484375 228.230469 68.003906 225.199219 68.003906 L 10.164062 68.003906 C 7.152344 68.003906 4.679688 70.484375 4.679688 73.496094 L 4.679688 217.519531 Z M 230.710938 217.519531 " fill-opacity="1" fill-rule="nonzero"/></g><path fill="#ffffff" d="M 16.09375 79.398438 L 219.273438 79.398438 L 219.273438 206.121094 L 16.09375 206.121094 Z M 16.09375 79.398438 " fill-opacity="1" fill-rule="nonzero"/><g clip-path="url(#093dea7087)"><path fill="#e6e5e5" d="M 230.710938 217.519531 L 230.710938 232.683594 C 230.710938 235.707031 228.226562 238.167969 225.199219 238.167969 L 10.171875 238.167969 C 7.160156 238.167969 4.675781 235.707031 4.675781 232.683594 L 4.675781 217.519531 Z M 230.710938 217.519531 " fill-opacity="1" fill-rule="nonzero"/></g><path fill="#f2f2f2" d="M 24.699219 26.339844 L 140.742188 26.339844 L 140.742188 206.121094 L 24.699219 206.121094 Z M 24.699219 26.339844 " fill-opacity="1" fill-rule="nonzero"/><path fill="#f15424" d="M 24.699219 26.339844 L 140.742188 26.339844 L 140.742188 37.082031 L 24.699219 37.082031 Z M 24.699219 26.339844 " fill-opacity="1" fill-rule="nonzero"/><path fill="#16c6cc" d="M 24.699219 90.167969 L 140.742188 90.167969 L 140.742188 148.144531 L 24.699219 148.144531 Z M 24.699219 90.167969 " fill-opacity="1" fill-rule="nonzero"/><path fill="#f15424" d="M 33.625 157.050781 L 60.40625 157.050781 L 60.40625 178.417969 L 33.625 178.417969 Z M 33.625 157.050781 " fill-opacity="1" fill-rule="nonzero"/><path fill="#f15424" d="M 69.332031 157.050781 L 96.113281 157.050781 L 96.113281 178.417969 L 69.332031 178.417969 Z M 69.332031 157.050781 " fill-opacity="1" fill-rule="nonzero"/><path fill="#f15424" d="M 105.035156 157.050781 L 131.816406 157.050781 L 131.816406 178.417969 L 105.035156 178.417969 Z M 105.035156 157.050781 " fill-opacity="1" fill-rule="nonzero"/><path fill="#ffffff" d="M 33.625 99.074219 L 60.40625 99.074219 L 60.40625 120.441406 L 33.625 120.441406 Z M 33.625 99.074219 " fill-opacity="1" fill-rule="nonzero"/><path fill="#ffffff" d="M 69.332031 99.074219 L 96.113281 99.074219 L 96.113281 120.441406 L 69.332031 120.441406 Z M 69.332031 99.074219 " fill-opacity="1" fill-rule="nonzero"/><path fill="#ffffff" d="M 105.035156 99.074219 L 131.816406 99.074219 L 131.816406 120.441406 L 105.035156 120.441406 Z M 105.035156 99.074219 " fill-opacity="1" fill-rule="nonzero"/><path fill="#ffca40" d="M 33.628906 45.992188 L 131.816406 45.992188 L 131.816406 58.816406 L 33.628906 58.816406 Z M 33.628906 45.992188 " fill-opacity="1" fill-rule="nonzero"/><path fill="#f15424" d="M 33.625 67.722656 L 131.816406 67.722656 L 131.816406 71.996094 L 33.625 71.996094 Z M 33.625 67.722656 " fill-opacity="1" fill-rule="nonzero"/><path fill="#242d3c" d="M 33.625 182.160156 L 60.40625 182.160156 L 60.40625 184.484375 L 33.625 184.484375 Z M 33.625 182.160156 " fill-opacity="1" fill-rule="nonzero"/><path fill="#242d3c" d="M 33.625 186.792969 L 60.40625 186.792969 L 60.40625 189.117188 L 33.625 189.117188 Z M 33.625 186.792969 " fill-opacity="1" fill-rule="nonzero"/><path fill="#242d3c" d="M 33.625 191.417969 L 60.40625 191.417969 L 60.40625 193.746094 L 33.625 193.746094 Z M 33.625 191.417969 " fill-opacity="1" fill-rule="nonzero"/><path fill="#242d3c" d="M 33.625 196.050781 L 47.015625 196.050781 L 47.015625 198.375 L 33.625 198.375 Z M 33.625 196.050781 " fill-opacity="1" fill-rule="nonzero"/><path fill="#242d3c" d="M 69.332031 182.160156 L 96.113281 182.160156 L 96.113281 184.484375 L 69.332031 184.484375 Z M 69.332031 182.160156 " fill-opacity="1" fill-rule="nonzero"/><path fill="#242d3c" d="M 69.332031 186.792969 L 96.113281 186.792969 L 96.113281 189.117188 L 69.332031 189.117188 Z M 69.332031 186.792969 " fill-opacity="1" fill-rule="nonzero"/><path fill="#242d3c" d="M 69.332031 191.417969 L 96.113281 191.417969 L 96.113281 193.746094 L 69.332031 193.746094 Z M 69.332031 191.417969 " fill-opacity="1" fill-rule="nonzero"/><path fill="#242d3c" d="M 69.332031 196.050781 L 82.722656 196.050781 L 82.722656 198.375 L 69.332031 198.375 Z M 69.332031 196.050781 " fill-opacity="1" fill-rule="nonzero"/><path fill="#242d3c" d="M 105.035156 182.160156 L 131.816406 182.160156 L 131.816406 184.484375 L 105.035156 184.484375 Z M 105.035156 182.160156 " fill-opacity="1" fill-rule="nonzero"/><path fill="#242d3c" d="M 105.035156 186.792969 L 131.816406 186.792969 L 131.816406 189.117188 L 105.035156 189.117188 Z M 105.035156 186.792969 " fill-opacity="1" fill-rule="nonzero"/><path fill="#242d3c" d="M 105.035156 191.417969 L 131.816406 191.417969 L 131.816406 193.746094 L 105.035156 193.746094 Z M 105.035156 191.417969 " fill-opacity="1" fill-rule="nonzero"/><path fill="#242d3c" d="M 105.035156 196.050781 L 118.425781 196.050781 L 118.425781 198.375 L 105.035156 198.375 Z M 105.035156 196.050781 " fill-opacity="1" fill-rule="nonzero"/><path fill="#242d3c" d="M 33.628906 124.183594 L 131.828125 124.183594 L 131.828125 126.511719 L 33.628906 126.511719 Z M 33.628906 124.183594 " fill-opacity="1" fill-rule="nonzero"/><path fill="#242d3c" d="M 33.625 128.8125 L 131.828125 128.8125 L 131.828125 131.136719 L 33.625 131.136719 Z M 33.625 128.8125 " fill-opacity="1" fill-rule="nonzero"/><path fill="#242d3c" d="M 33.628906 133.441406 L 131.832031 133.441406 L 131.832031 135.765625 L 33.628906 135.765625 Z M 33.628906 133.441406 " fill-opacity="1" fill-rule="nonzero"/><path fill="#242d3c" d="M 33.628906 138.074219 L 82.730469 138.074219 L 82.730469 140.398438 L 33.628906 140.398438 Z M 33.628906 138.074219 " fill-opacity="1" fill-rule="nonzero"/><path fill="#242d3c" d="M 50.296875 79.746094 L 115.15625 79.746094 L 115.15625 82.070312 L 50.296875 82.070312 Z M 50.296875 79.746094 " fill-opacity="1" fill-rule="nonzero"/><path fill="#242d3c" d="M 44.539062 51.242188 L 55.449219 51.242188 L 55.449219 53.566406 L 44.539062 53.566406 Z M 44.539062 51.242188 " fill-opacity="1" fill-rule="nonzero"/><path fill="#242d3c" d="M 66.359375 51.242188 L 77.265625 51.242188 L 77.265625 53.566406 L 66.359375 53.566406 Z M 66.359375 51.242188 " fill-opacity="1" fill-rule="nonzero"/><path fill="#242d3c" d="M 88.179688 51.242188 L 99.085938 51.242188 L 99.085938 53.566406 L 88.179688 53.566406 Z M 88.179688 51.242188 " fill-opacity="1" fill-rule="nonzero"/><path fill="#242d3c" d="M 110 51.242188 L 120.910156 51.242188 L 120.910156 53.566406 L 110 53.566406 Z M 110 51.242188 " fill-opacity="1" fill-rule="nonzero"/><path fill="#ffca40" d="M 186.683594 26.339844 L 210.699219 26.339844 L 210.699219 206.121094 L 186.683594 206.121094 Z M 186.683594 26.339844 " fill-opacity="1" fill-rule="nonzero"/><path fill="#242d3c" d="M 186.683594 199.097656 L 192.996094 199.097656 L 192.996094 201.160156 L 186.683594 201.160156 Z M 186.683594 199.097656 " fill-opacity="1" fill-rule="nonzero"/><path fill="#242d3c" d="M 186.683594 187.113281 L 192.996094 187.113281 L 192.996094 189.175781 L 186.683594 189.175781 Z M 186.683594 187.113281 " fill-opacity="1" fill-rule="nonzero"/><path fill="#242d3c" d="M 186.683594 175.128906 L 192.996094 175.128906 L 192.996094 177.1875 L 186.683594 177.1875 Z M 186.683594 175.128906 " fill-opacity="1" fill-rule="nonzero"/><path fill="#242d3c" d="M 186.683594 163.140625 L 192.996094 163.140625 L 192.996094 165.203125 L 186.683594 165.203125 Z M 186.683594 163.140625 " fill-opacity="1" fill-rule="nonzero"/><path fill="#242d3c" d="M 186.683594 151.15625 L 192.996094 151.15625 L 192.996094 153.21875 L 186.683594 153.21875 Z M 186.683594 151.15625 " fill-opacity="1" fill-rule="nonzero"/><path fill="#242d3c" d="M 186.683594 139.171875 L 192.996094 139.171875 L 192.996094 141.230469 L 186.683594 141.230469 Z M 186.683594 139.171875 " fill-opacity="1" fill-rule="nonzero"/><path fill="#242d3c" d="M 186.683594 127.183594 L 192.996094 127.183594 L 192.996094 129.246094 L 186.683594 129.246094 Z M 186.683594 127.183594 " fill-opacity="1" fill-rule="nonzero"/><path fill="#242d3c" d="M 186.683594 115.203125 L 192.996094 115.203125 L 192.996094 117.261719 L 186.683594 117.261719 Z M 186.683594 115.203125 " fill-opacity="1" fill-rule="nonzero"/><path fill="#242d3c" d="M 186.683594 103.214844 L 192.996094 103.214844 L 192.996094 105.277344 L 186.683594 105.277344 Z M 186.683594 103.214844 " fill-opacity="1" fill-rule="nonzero"/><path fill="#242d3c" d="M 186.683594 91.230469 L 192.996094 91.230469 L 192.996094 93.292969 L 186.683594 93.292969 Z M 186.683594 91.230469 " fill-opacity="1" fill-rule="nonzero"/><path fill="#242d3c" d="M 186.683594 79.246094 L 192.996094 79.246094 L 192.996094 81.304688 L 186.683594 81.304688 Z M 186.683594 79.246094 " fill-opacity="1" fill-rule="nonzero"/><path fill="#242d3c" d="M 186.683594 61.269531 L 192.996094 61.269531 L 192.996094 63.328125 L 186.683594 63.328125 Z M 186.683594 61.269531 " fill-opacity="1" fill-rule="nonzero"/><path fill="#242d3c" d="M 186.683594 49.28125 L 192.996094 49.28125 L 192.996094 51.34375 L 186.683594 51.34375 Z M 186.683594 49.28125 " fill-opacity="1" fill-rule="nonzero"/><path fill="#242d3c" d="M 186.683594 37.292969 L 192.996094 37.292969 L 192.996094 39.355469 L 186.683594 39.355469 Z M 186.683594 37.292969 " fill-opacity="1" fill-rule="nonzero"/><path fill="#242d3c" d="M 186.683594 193.105469 L 190.007812 193.105469 L 190.007812 195.167969 L 186.683594 195.167969 Z M 186.683594 193.105469 " fill-opacity="1" fill-rule="nonzero"/><path fill="#242d3c" d="M 186.683594 181.121094 L 190.007812 181.121094 L 190.007812 183.183594 L 186.683594 183.183594 Z M 186.683594 181.121094 " fill-opacity="1" fill-rule="nonzero"/><path fill="#242d3c" d="M 186.683594 169.132812 L 190.007812 169.132812 L 190.007812 171.195312 L 186.683594 171.195312 Z M 186.683594 169.132812 " fill-opacity="1" fill-rule="nonzero"/><path fill="#242d3c" d="M 186.683594 157.148438 L 190.007812 157.148438 L 190.007812 159.210938 L 186.683594 159.210938 Z M 186.683594 157.148438 " fill-opacity="1" fill-rule="nonzero"/><path fill="#242d3c" d="M 186.683594 145.164062 L 190.007812 145.164062 L 190.007812 147.226562 L 186.683594 147.226562 Z M 186.683594 145.164062 " fill-opacity="1" fill-rule="nonzero"/><path fill="#242d3c" d="M 186.683594 133.179688 L 190.007812 133.179688 L 190.007812 135.242188 L 186.683594 135.242188 Z M 186.683594 133.179688 " fill-opacity="1" fill-rule="nonzero"/><path fill="#242d3c" d="M 186.683594 121.195312 L 190.007812 121.195312 L 190.007812 123.257812 L 186.683594 123.257812 Z M 186.683594 121.195312 " fill-opacity="1" fill-rule="nonzero"/><path fill="#242d3c" d="M 186.683594 109.210938 L 190.007812 109.210938 L 190.007812 111.269531 L 186.683594 111.269531 Z M 186.683594 109.210938 " fill-opacity="1" fill-rule="nonzero"/><path fill="#242d3c" d="M 186.683594 97.222656 L 190.007812 97.222656 L 190.007812 99.285156 L 186.683594 99.285156 Z M 186.683594 97.222656 " fill-opacity="1" fill-rule="nonzero"/><path fill="#242d3c" d="M 186.683594 85.238281 L 190.007812 85.238281 L 190.007812 87.296875 L 186.683594 87.296875 Z M 186.683594 85.238281 " fill-opacity="1" fill-rule="nonzero"/><path fill="#242d3c" d="M 186.683594 73.25 L 190.007812 73.25 L 190.007812 75.3125 L 186.683594 75.3125 Z M 186.683594 73.25 " fill-opacity="1" fill-rule="nonzero"/><path fill="#242d3c" d="M 186.683594 67.257812 L 190.007812 67.257812 L 190.007812 69.320312 L 186.683594 69.320312 Z M 186.683594 67.257812 " fill-opacity="1" fill-rule="nonzero"/><path fill="#242d3c" d="M 186.683594 55.273438 L 190.007812 55.273438 L 190.007812 57.332031 L 186.683594 57.332031 Z M 186.683594 55.273438 " fill-opacity="1" fill-rule="nonzero"/><path fill="#242d3c" d="M 186.683594 43.289062 L 190.007812 43.289062 L 190.007812 45.351562 L 186.683594 45.351562 Z M 186.683594 43.289062 " fill-opacity="1" fill-rule="nonzero"/><path fill="#242d3c" d="M 186.683594 31.304688 L 190.007812 31.304688 L 190.007812 33.367188 L 186.683594 33.367188 Z M 186.683594 31.304688 " fill-opacity="1" fill-rule="nonzero"/><path fill="#f15424" d="M 158.238281 68.003906 L 169.195312 68.003906 L 169.195312 79.398438 L 158.238281 79.398438 Z M 158.238281 68.003906 " fill-opacity="1" fill-rule="nonzero"/><path fill="#ff6d3b" d="M 158.238281 109.496094 L 169.195312 109.496094 L 169.195312 206.121094 L 158.238281 206.121094 Z M 158.238281 109.496094 " fill-opacity="1" fill-rule="nonzero"/><path fill="#f15424" d="M 163.714844 109.496094 L 169.195312 109.496094 L 169.195312 206.121094 L 163.714844 206.121094 Z M 163.714844 109.496094 " fill-opacity="1" fill-rule="nonzero"/><g clip-path="url(#d131395081)"><path fill="#d9d8d7" d="M 179.042969 58.171875 L 163.714844 25.140625 L 148.390625 58.171875 L 148.386719 58.175781 L 148.398438 58.175781 C 153.824219 58.179688 158.222656 62.566406 158.238281 67.976562 L 158.238281 68.003906 L 169.195312 68.003906 L 169.191406 67.976562 C 169.207031 62.566406 173.605469 58.179688 179.03125 58.175781 L 179.042969 58.175781 Z M 179.042969 58.171875 " fill-opacity="1" fill-rule="nonzero"/></g><g clip-path="url(#5019bd1939)"><path fill="#242d3c" d="M 163.101562 25.140625 L 164.328125 25.140625 L 164.328125 45.816406 L 163.101562 45.816406 Z M 163.101562 25.140625 " fill-opacity="1" fill-rule="nonzero"/></g><path fill="#3e4959" d="M 170.316406 79.398438 C 170.445312 79.398438 170.574219 79.445312 170.671875 79.546875 C 170.765625 79.648438 170.820312 79.777344 170.820312 79.902344 L 170.820312 108.992188 C 170.820312 109.121094 170.769531 109.253906 170.671875 109.355469 C 170.574219 109.449219 170.445312 109.5 170.316406 109.5 L 157.113281 109.5 C 156.984375 109.5 156.855469 109.449219 156.757812 109.355469 C 156.660156 109.253906 156.609375 109.121094 156.609375 108.992188 L 156.609375 79.902344 C 156.609375 79.777344 156.660156 79.644531 156.757812 79.546875 C 156.855469 79.445312 156.984375 79.398438 157.113281 79.398438 Z M 170.316406 79.398438 " fill-opacity="1" fill-rule="nonzero"/><path fill="#131a26" d="M 156.609375 79.902344 L 170.820312 79.902344 L 170.820312 108.992188 L 156.609375 108.992188 Z M 156.609375 79.902344 " fill-opacity="1" fill-rule="nonzero"/><path fill="#3e4959" d="M 169.976562 79.902344 L 170.394531 79.902344 L 170.394531 108.992188 L 169.976562 108.992188 Z M 169.976562 79.902344 " fill-opacity="1" fill-rule="nonzero"/><path fill="#3e4959" d="M 168.976562 79.902344 L 169.398438 79.902344 L 169.398438 108.992188 L 168.976562 108.992188 Z M 168.976562 79.902344 " fill-opacity="1" fill-rule="nonzero"/><path fill="#3e4959" d="M 167.984375 79.902344 L 168.402344 79.902344 L 168.402344 108.992188 L 167.984375 108.992188 Z M 167.984375 79.902344 " fill-opacity="1" fill-rule="nonzero"/><path fill="#3e4959" d="M 166.988281 79.902344 L 167.40625 79.902344 L 167.40625 108.992188 L 166.988281 108.992188 Z M 166.988281 79.902344 " fill-opacity="1" fill-rule="nonzero"/><path fill="#3e4959" d="M 165.992188 79.902344 L 166.410156 79.902344 L 166.410156 108.992188 L 165.992188 108.992188 Z M 165.992188 79.902344 " fill-opacity="1" fill-rule="nonzero"/><path fill="#3e4959" d="M 164.996094 79.902344 L 165.417969 79.902344 L 165.417969 108.992188 L 164.996094 108.992188 Z M 164.996094 79.902344 " fill-opacity="1" fill-rule="nonzero"/><path fill="#3e4959" d="M 164.003906 79.902344 L 164.417969 79.902344 L 164.417969 108.992188 L 164.003906 108.992188 Z M 164.003906 79.902344 " fill-opacity="1" fill-rule="nonzero"/><path fill="#3e4959" d="M 163.007812 79.902344 L 163.425781 79.902344 L 163.425781 108.992188 L 163.007812 108.992188 Z M 163.007812 79.902344 " fill-opacity="1" fill-rule="nonzero"/><path fill="#3e4959" d="M 162.011719 79.902344 L 162.429688 79.902344 L 162.429688 108.992188 L 162.011719 108.992188 Z M 162.011719 79.902344 " fill-opacity="1" fill-rule="nonzero"/><path fill="#3e4959" d="M 161.015625 79.902344 L 161.4375 79.902344 L 161.4375 108.992188 L 161.015625 108.992188 Z M 161.015625 79.902344 " fill-opacity="1" fill-rule="nonzero"/><path fill="#3e4959" d="M 160.019531 79.902344 L 160.441406 79.902344 L 160.441406 108.992188 L 160.019531 108.992188 Z M 160.019531 79.902344 " fill-opacity="1" fill-rule="nonzero"/><path fill="#3e4959" d="M 159.027344 79.902344 L 159.441406 79.902344 L 159.441406 108.992188 L 159.027344 108.992188 Z M 159.027344 79.902344 " fill-opacity="1" fill-rule="nonzero"/><path fill="#3e4959" d="M 158.03125 79.902344 L 158.445312 79.902344 L 158.445312 108.992188 L 158.03125 108.992188 Z M 158.03125 79.902344 " fill-opacity="1" fill-rule="nonzero"/><path fill="#3e4959" d="M 157.035156 79.902344 L 157.453125 79.902344 L 157.453125 108.992188 L 157.035156 108.992188 Z M 157.035156 79.902344 " fill-opacity="1" fill-rule="nonzero"/><g clip-path="url(#953f5b9a72)"><path fill="#242d3c" d="M 295.675781 56.691406 L 295.675781 50.621094 L 290.871094 50.621094 C 290.609375 48.664062 290.105469 46.785156 289.375 45.019531 L 293.523438 42.625 L 290.488281 37.375 L 286.332031 39.769531 C 285.144531 38.230469 283.761719 36.851562 282.222656 35.667969 L 284.621094 31.515625 L 279.359375 28.484375 L 276.964844 32.628906 C 275.191406 31.898438 273.308594 31.386719 271.34375 31.128906 L 271.34375 26.34375 L 265.265625 26.34375 L 265.265625 31.128906 C 263.304688 31.390625 261.417969 31.898438 259.644531 32.628906 L 257.25 28.484375 L 251.988281 31.515625 L 254.386719 35.667969 C 252.847656 36.851562 251.464844 38.230469 250.28125 39.769531 L 246.121094 37.375 L 243.085938 42.625 L 247.238281 45.019531 C 246.507812 46.785156 245.996094 48.664062 245.738281 50.621094 L 240.9375 50.621094 L 240.9375 56.691406 L 245.738281 56.691406 C 245.996094 58.648438 246.507812 60.53125 247.238281 62.300781 L 243.085938 64.6875 L 246.121094 69.941406 L 250.28125 67.546875 C 251.46875 69.082031 252.851562 70.460938 254.394531 71.648438 L 251.992188 75.800781 L 257.25 78.828125 L 259.648438 74.679688 C 261.421875 75.414062 263.304688 75.917969 265.265625 76.183594 L 265.265625 80.972656 L 271.34375 80.972656 L 271.34375 76.183594 C 273.304688 75.917969 275.191406 75.414062 276.960938 74.683594 L 279.359375 78.832031 L 284.617188 75.800781 L 282.21875 71.644531 C 283.761719 70.460938 285.144531 69.082031 286.332031 67.546875 L 290.484375 69.941406 L 293.527344 64.6875 L 289.375 62.300781 C 290.105469 60.53125 290.613281 58.648438 290.871094 56.691406 Z M 268.304688 68.53125 C 260.074219 68.53125 253.402344 61.871094 253.402344 53.65625 C 253.402344 45.441406 260.074219 38.785156 268.304688 38.785156 C 276.53125 38.785156 283.203125 45.441406 283.203125 53.65625 C 283.203125 61.871094 276.53125 68.53125 268.304688 68.53125 Z M 268.304688 68.53125 " fill-opacity="1" fill-rule="nonzero"/></g></svg>