<svg xmlns="http://www.w3.org/2000/svg" xmlns:xlink="http://www.w3.org/1999/xlink" width="120" zoomAndPan="magnify" viewBox="0 0 90 89.999999" height="120" preserveAspectRatio="xMidYMid meet" version="1.0"><path fill="#2d9df9" d="M 82.761719 50.464844 C 86.984375 48.023438 86.984375 41.925781 82.761719 39.488281 C 79.730469 37.738281 78.691406 33.863281 80.441406 30.835938 C 82.878906 26.609375 79.832031 21.328125 74.953125 21.328125 C 71.453125 21.328125 68.617188 18.492188 68.617188 14.996094 C 68.617188 10.117188 63.335938 7.066406 59.113281 9.507812 C 56.085938 11.253906 52.207031 10.21875 50.460938 7.1875 C 48.019531 2.960938 41.925781 2.960938 39.484375 7.1875 C 37.734375 10.21875 33.863281 11.253906 30.832031 9.507812 C 26.605469 7.066406 21.328125 10.117188 21.328125 14.996094 C 21.328125 18.492188 18.488281 21.328125 14.992188 21.328125 C 10.113281 21.328125 7.066406 26.609375 9.503906 30.835938 C 11.253906 33.863281 10.214844 37.738281 7.183594 39.488281 C 2.960938 41.925781 2.960938 48.023438 7.183594 50.464844 C 10.214844 52.210938 11.253906 56.085938 9.503906 59.117188 C 7.066406 63.339844 10.117188 68.621094 14.992188 68.621094 C 18.488281 68.621094 21.328125 71.457031 21.328125 74.957031 C 21.328125 79.835938 26.605469 82.882812 30.832031 80.445312 C 33.863281 78.695312 37.734375 79.730469 39.484375 82.761719 C 41.925781 86.988281 48.019531 86.988281 50.460938 82.761719 C 52.207031 79.730469 56.085938 78.695312 59.113281 80.445312 C 63.335938 82.882812 68.617188 79.835938 68.617188 74.957031 C 68.617188 71.457031 71.453125 68.621094 74.953125 68.621094 C 79.832031 68.621094 82.878906 63.339844 80.441406 59.117188 C 78.691406 56.085938 79.730469 52.210938 82.761719 50.464844 " fill-opacity="1" fill-rule="nonzero"/><path fill="#ffffff" d="M 67.53125 34.351562 L 61.597656 28.417969 L 40.402344 49.609375 L 30.140625 39.347656 L 24.203125 45.285156 L 34.464844 55.542969 L 34.414062 55.597656 L 40.351562 61.53125 L 40.402344 61.480469 L 40.453125 61.535156 L 46.390625 55.597656 L 46.339844 55.542969 L 67.53125 34.351562 " fill-opacity="1" fill-rule="nonzero"/></svg>