<?xml version="1.0" encoding="UTF-8"?>
<svg id="Layer_1" data-name="Layer 1" xmlns="http://www.w3.org/2000/svg" xmlns:xlink="http://www.w3.org/1999/xlink" viewBox="0 0 500 300">
  <defs>
    <style>
      .cls-1 {
        fill: url(#linear-gradient-2);
      }

      .cls-2 {
        fill: #fff;
      }

      .cls-3 {
        fill: #57c9e8;
      }

      .cls-4 {
        fill: url(#linear-gradient);
      }
    </style>
    <linearGradient id="linear-gradient" x1="34.12" y1="80.64" x2="34.21" y2="80.64" gradientUnits="userSpaceOnUse">
      <stop offset="0" stop-color="#2e3192"/>
      <stop offset=".66" stop-color="#1c75bc"/>
    </linearGradient>
    <linearGradient id="linear-gradient-2" x1="14.55" y1="154.2" x2="80.03" y2="154.2" gradientUnits="userSpaceOnUse">
      <stop offset="0" stop-color="#4571b6"/>
      <stop offset="1" stop-color="#57c9e8"/>
    </linearGradient>
  </defs>
  <g>
    <g>
      <path class="cls-2" d="m29.51,73.4c0,.9-.35,1.71-.92,2.29l-.53,1.31v14.66h-.02v20.97c0,.64-.31,1.22-.81,1.54h0c-1.08.69-2.43-.17-2.43-1.54v-35.62c-.18-.45-.34-.85-.53-1.3-.57-.58-.91-1.39-.91-2.29,0-1.77,1.37-3.21,3.07-3.21s3.09,1.44,3.09,3.21Z"/>
      <path class="cls-2" d="m42.68,57.32c0,.94-.32,1.8-.85,2.43l-.41,1.17v14.26c0,.9-.31,1.75-.86,2.4l-2.32,2.66c-.55.63-.86,1.49-.86,2.38v14.85h-.02v9.24c0,.64-.31,1.22-.81,1.54h0c-1.08.69-2.43-.17-2.43-1.54v-25.63c0-.29.04-.58.1-.85.13-.58.39-1.11.76-1.54l2.32-2.66c.55-.64.86-1.49.86-2.4v-12.27c-.2-.47-.37-.88-.57-1.35-.66-.65-1.08-1.6-1.08-2.68,0-1.95,1.38-3.54,3.09-3.54s3.07,1.58,3.07,3.54Z"/>
      <path class="cls-4" d="m34.21,80.22c-.06.27-.1.56-.1.85v-.79l.1-.07Z"/>
      <path class="cls-1" d="m75.86,171.14c2.3,0,4.17,1.68,4.17,3.75v17.09c0,2.52-1.88,4.56-4.19,4.56H20.07c-3.05,0-5.52-2.69-5.52-6.02v-65.31c0-.64.31-1.22.82-1.54h0c1.09-.69,2.45.17,2.45,1.54v58.55c0,2.98,3.31,4.47,5.24,2.37l.79-.86c.58-.63.9-1.48.9-2.37v-63.34c0-.64.31-1.22.82-1.54h0c1.09-.69,2.45.17,2.45,1.54v53.09c0,2.98,3.31,4.47,5.24,2.37h0c.58-.63.9-1.48.9-2.37v-59.01c0-.64.31-1.22.82-1.54h0c1.09-.69,2.45.17,2.45,1.54v54.15c0,1.85,1.38,3.35,3.07,3.35h35.35Z"/>
      <path class="cls-2" d="m19.52,79.47c0,.9-.35,1.71-.92,2.29l-.53,1.31v14.66h-.02v20.97c0,.64-.31,1.22-.81,1.54h0c-1.08.69-2.43-.17-2.43-1.54v-35.62c-.18-.45-.34-.85-.53-1.3-.57-.58-.91-1.39-.91-2.29,0-1.77,1.37-3.21,3.07-3.21s3.09,1.44,3.09,3.21Z"/>
    </g>
    <path class="cls-3" d="m105.34,196.54c-5.94,0-10.57-1.53-13.89-4.59-3.32-3.06-4.98-7.78-4.98-14.16v-73.97c0-1.42,1.15-2.58,2.58-2.58h14.11c1.42,0,2.58,1.15,2.58,2.58v72.79c0,2.19.39,3.63,1.18,4.33.79.7,2.31,1.05,4.59,1.05h36.96c2.27,0,3.87-.37,4.78-1.11.92-.74,1.38-2.21,1.38-4.39v-72.66c0-1.42,1.15-2.58,2.58-2.58h14.11c1.42,0,2.58,1.15,2.58,2.58v73.97c0,6.38-1.66,11.1-4.98,14.16-3.32,3.06-7.95,4.59-13.89,4.59h-49.68Z"/>
    <path class="cls-3" d="m295.05,196.54h-13.72c-1.42,0-2.58-1.15-2.58-2.58v-59.09c0-2.65-3.51-3.58-4.82-1.27l-29.13,51.29c-.99,1.74-3.48,1.74-4.48.01l-29.64-51.55c-1.32-2.29-4.81-1.36-4.81,1.29v59.33c0,1.42-1.15,2.58-2.58,2.58h-13.06c-1.42,0-2.58-1.15-2.58-2.58v-90.13c0-1.42,1.15-2.58,2.58-2.58h19.39c.93,0,1.78.5,2.24,1.3l28.46,49.93c.99,1.74,3.5,1.73,4.49-.01l28.09-49.9c.46-.81,1.32-1.31,2.25-1.31h19.9c1.42,0,2.58,1.15,2.58,2.58v90.13c0,1.42-1.15,2.58-2.58,2.58Z"/>
    <rect class="cls-2" x="311.38" y="101.24" width="68.19" height="15.21" rx="2.02" ry="2.02"/>
    <path class="cls-2" d="m330.27,159.27v20.13c0,1.43,1.16,2.59,2.57,2.59h44.72c1.11,0,2.02.9,2.02,2.02v10.51c0,1.11-.9,2.02-2.02,2.02h-64.16c-1.11,0-2.02-.9-2.02-2.02v-49.43c0-1.11.9-2.02,2.02-2.02h64.16c1.11,0,2.02.9,2.02,2.02v9.59c0,1.11-.9,2.02-2.02,2.02h-44.72c-1.41,0-2.57,1.16-2.57,2.59Z"/>
    <path class="cls-3" d="m484.06,196.54h-12.54c-1.42,0-2.58-1.15-2.58-2.58v-6.49c0-.66-.25-1.29-.7-1.77l-47.01-50.08c-1.6-1.7-4.46-.57-4.46,1.77v56.57c0,1.42-1.15,2.58-2.58,2.58h-12.41c-1.42,0-2.58-1.15-2.58-2.58v-90.13c0-1.42,1.15-2.58,2.58-2.58h11.35c.73,0,1.42.31,1.91.84l49.4,54.38c1.59,1.75,4.49.62,4.49-1.73v-50.91c0-1.42,1.15-2.58,2.58-2.58h12.54c1.42,0,2.58,1.15,2.58,2.58v90.13c0,1.42-1.15,2.58-2.58,2.58Z"/>
  </g>
  <g>
    <path class="cls-2" d="m29.12,225.42c-.18.28-.36.5-.56.64-.19.14-.44.21-.75.21-.27,0-.56-.09-.87-.26-.31-.17-.67-.36-1.06-.57-.39-.21-.85-.4-1.35-.57s-1.08-.26-1.73-.26c-1.12,0-1.95.24-2.5.72-.55.48-.82,1.12-.82,1.93,0,.52.17.95.5,1.29.33.34.76.63,1.3.88.54.25,1.15.47,1.84.68.69.21,1.39.44,2.11.69.72.25,1.42.55,2.11.89s1.3.78,1.84,1.31c.54.53.97,1.18,1.3,1.94.33.76.49,1.67.49,2.75,0,1.19-.21,2.3-.62,3.34-.41,1.04-1.01,1.94-1.79,2.71-.78.77-1.75,1.38-2.9,1.82-1.15.44-2.45.66-3.91.66-.8,0-1.62-.08-2.45-.25s-1.63-.4-2.41-.7c-.78-.3-1.51-.66-2.19-1.07s-1.28-.87-1.78-1.38l1.77-2.79c.13-.21.31-.38.55-.51.23-.13.49-.2.76-.2.35,0,.71.11,1.07.34.36.22.77.47,1.22.74.45.27.98.52,1.56.74.59.22,1.28.34,2.08.34,1.08,0,1.93-.24,2.53-.72.6-.48.9-1.23.9-2.27,0-.6-.17-1.09-.49-1.47-.33-.38-.76-.69-1.3-.94-.54-.25-1.15-.47-1.83-.65-.68-.19-1.38-.4-2.1-.63-.72-.23-1.42-.51-2.1-.85-.68-.34-1.29-.78-1.83-1.33-.54-.55-.97-1.23-1.3-2.05-.33-.82-.5-1.83-.5-3.03,0-.97.19-1.91.58-2.83.39-.92.96-1.74,1.71-2.46.75-.72,1.68-1.29,2.77-1.72,1.1-.43,2.35-.65,3.76-.65.79,0,1.56.06,2.31.19.75.12,1.46.31,2.13.55s1.3.53,1.88.87,1.1.72,1.56,1.14l-1.48,2.77Z"/>
    <path class="cls-2" d="m68.13,233.05c0,1.86-.32,3.59-.96,5.19s-1.55,2.99-2.71,4.18c-1.17,1.18-2.57,2.11-4.21,2.78s-3.47,1.01-5.47,1.01-3.83-.34-5.48-1.01-3.06-1.6-4.23-2.78c-1.17-1.18-2.08-2.58-2.72-4.18s-.96-3.33-.96-5.19.32-3.59.96-5.19,1.55-2.99,2.72-4.17c1.17-1.18,2.58-2.1,4.23-2.77,1.65-.67,3.47-1.01,5.48-1.01s3.83.34,5.47,1.02,3.05,1.61,4.21,2.78c1.17,1.18,2.07,2.57,2.71,4.17s.96,3.33.96,5.18Zm-6.11,0c0-1.27-.17-2.42-.49-3.44-.33-1.02-.8-1.88-1.42-2.59-.62-.71-1.38-1.25-2.27-1.63s-1.91-.57-3.06-.57-2.18.19-3.08.57-1.66.92-2.28,1.63c-.62.71-1.09,1.57-1.42,2.59-.33,1.02-.5,2.16-.5,3.44s.17,2.43.5,3.45c.33,1.02.8,1.88,1.42,2.59.62.71,1.38,1.24,2.28,1.62.9.37,1.93.56,3.08.56s2.16-.19,3.06-.56c.9-.37,1.65-.91,2.27-1.62.62-.71,1.09-1.57,1.42-2.59.33-1.02.49-2.17.49-3.45Z"/>
    <path class="cls-2" d="m96.36,220.19v4.59h-10.56v6.52h8.8v4.61h-8.8v10.02h-6.01v-25.74h16.57Z"/>
    <path class="cls-2" d="m126.95,220.19v4.73h-7.24v21h-5.97v-21h-7.24v-4.73h20.46Z"/>
    <path class="cls-2" d="m172.53,220.19v4.73h-7.24v21h-5.97v-21h-7.24v-4.73h20.46Z"/>
    <path class="cls-2" d="m200.38,220.19v4.59h-10.56v6.01h8.09v4.42h-8.09v6.13h10.56v4.59h-16.57v-25.74h16.57Z"/>
    <path class="cls-2" d="m229.86,239.27c.14,0,.28.03.42.08.14.05.28.14.41.27l2.37,2.49c-1.04,1.36-2.34,2.38-3.9,3.07s-3.41,1.03-5.54,1.03c-1.96,0-3.71-.33-5.26-1-1.55-.67-2.86-1.58-3.94-2.76-1.08-1.17-1.91-2.56-2.48-4.17-.58-1.61-.87-3.36-.87-5.24s.33-3.68.99-5.29c.66-1.61,1.58-2.99,2.76-4.16s2.6-2.07,4.25-2.72c1.65-.65,3.47-.97,5.46-.97.97,0,1.88.09,2.73.26s1.65.41,2.39.71c.74.3,1.42.66,2.05,1.08.62.42,1.18.88,1.66,1.39l-2.01,2.7c-.13.17-.28.32-.46.45-.18.13-.42.2-.74.2-.21,0-.41-.05-.6-.14s-.39-.21-.6-.35c-.21-.13-.44-.28-.7-.44-.25-.16-.55-.31-.9-.44-.35-.14-.75-.25-1.22-.35-.47-.09-1.01-.14-1.63-.14-1.08,0-2.07.19-2.97.57s-1.66.93-2.3,1.64c-.64.71-1.14,1.57-1.5,2.59-.36,1.01-.54,2.15-.54,3.41s.18,2.49.54,3.52c.36,1.02.85,1.89,1.47,2.59.62.7,1.34,1.23,2.16,1.6s1.71.55,2.65.55c.54,0,1.04-.03,1.48-.08.45-.05.86-.14,1.25-.27s.75-.3,1.1-.5c.35-.21.7-.46,1.05-.77.14-.12.29-.22.46-.29.17-.08.34-.11.51-.11Z"/>
    <path class="cls-2" d="m267.05,245.93h-6.01v-10.88h-10.46v10.88h-6.01v-25.74h6.01v10.76h10.46v-10.76h6.01v25.74Z"/>
    <path class="cls-2" d="m301.67,241.16h9.54v4.77h-15.51v-25.74h5.97v20.97Z"/>
    <path class="cls-2" d="m329.38,245.93h-6.01v-25.74h6.01v25.74Z"/>
    <path class="cls-2" d="m356.78,235.56c.22.48.43.98.63,1.49.2-.52.41-1.02.64-1.51.22-.49.45-.96.69-1.42l6.61-13.02c.12-.22.24-.4.36-.52s.26-.21.41-.27.33-.09.52-.09h5.24v25.72h-5.27v-14.8c0-.72.04-1.5.11-2.33l-6.82,13.23c-.21.41-.5.72-.86.94-.36.21-.77.32-1.23.32h-.81c-.46,0-.87-.11-1.23-.32s-.65-.52-.86-.94l-6.86-13.25c.05.41.08.82.11,1.23s.04.78.04,1.12v14.8h-5.26v-25.72h5.24c.19,0,.37.03.52.09s.29.15.42.27c.12.12.24.3.36.52l6.62,13.07c.24.45.46.91.68,1.4Z"/>
    <path class="cls-2" d="m391.45,245.93h-6.01v-25.74h6.01v25.74Z"/>
    <path class="cls-2" d="m423.71,220.19v4.73h-7.24v21h-5.97v-21h-7.24v-4.73h20.46Z"/>
    <path class="cls-2" d="m451.55,220.19v4.59h-10.56v6.01h8.09v4.42h-8.09v6.13h10.56v4.59h-16.57v-25.74h16.57Z"/>
    <path class="cls-2" d="m487.1,233.05c0,1.86-.32,3.58-.96,5.15-.64,1.57-1.54,2.93-2.71,4.08-1.17,1.15-2.57,2.04-4.21,2.68-1.64.64-3.47.96-5.47.96h-10v-25.74h10c2,0,3.83.32,5.47.97,1.64.65,3.05,1.54,4.21,2.69,1.17,1.14,2.07,2.5,2.71,4.07.64,1.57.96,3.28.96,5.13Zm-6.11,0c0-1.27-.17-2.42-.5-3.45-.33-1.02-.8-1.89-1.42-2.61s-1.38-1.26-2.27-1.64c-.89-.38-1.91-.57-3.06-.57h-3.99v16.55h3.99c1.14,0,2.16-.19,3.06-.57s1.65-.93,2.27-1.64,1.09-1.58,1.42-2.61c.33-1.02.5-2.18.5-3.46Z"/>
  </g>
</svg>