<?xml version="1.0" encoding="UTF-8"?>
<svg id="Layer_1" data-name="Layer 1" xmlns="http://www.w3.org/2000/svg" xmlns:xlink="http://www.w3.org/1999/xlink" viewBox="0 0 180 180">
  <defs>
    <style>
      .cls-1 {
        fill: #fff;
      }

      .cls-2 {
        fill: url(#linear-gradient);
      }

      .cls-3 {
        fill: #1f2156;
      }
    </style>
    <linearGradient id="linear-gradient" x1="55.22" y1="121.41" x2="126.06" y2="121.41" gradientUnits="userSpaceOnUse">
      <stop offset="0" stop-color="#4571b6"/>
      <stop offset="1" stop-color="#57c9e8"/>
    </linearGradient>
  </defs>
  <rect class="cls-1" x=".12" y=".12" width="179.75" height="179.75" rx="20.92" ry="20.92"/>
  <g>
    <path class="cls-3" d="m71.4,34c0,.97-.38,1.85-1,2.48l-.57,1.41v15.85h-.03v22.68c0,.69-.33,1.32-.88,1.67h0c-1.17.74-2.63-.19-2.63-1.67v-38.54c-.2-.49-.37-.92-.57-1.41-.61-.63-.99-1.51-.99-2.48,0-1.91,1.48-3.47,3.33-3.47s3.34,1.56,3.34,3.47Z"/>
    <path class="cls-3" d="m85.65,16.61c0,1.02-.35,1.95-.92,2.63l-.44,1.26v15.43c0,.98-.34,1.9-.93,2.59l-2.51,2.88c-.59.68-.93,1.61-.93,2.58v16.06h-.03v9.99c0,.69-.33,1.32-.88,1.67h0c-1.17.74-2.63-.19-2.63-1.67v-27.73c0-.31.04-.62.1-.92.14-.62.43-1.2.83-1.67l2.51-2.88c.59-.69.93-1.61.93-2.59v-13.28c-.22-.51-.4-.95-.62-1.46-.71-.7-1.16-1.74-1.16-2.9,0-2.11,1.5-3.82,3.34-3.82s3.33,1.71,3.33,3.82Z"/>
    <path class="cls-3" d="m76.5,41.38c-.06.3-.1.61-.1.92v-.85l.1-.07Z"/>
    <path class="cls-2" d="m121.55,139.74c2.49,0,4.51,1.82,4.51,4.06v18.48c0,2.73-2.03,4.94-4.53,4.94h-60.33c-3.3,0-5.98-2.91-5.98-6.51v-70.65c0-.69.34-1.32.88-1.67h0c1.18-.74,2.65.19,2.65,1.67v63.34c0,3.22,3.58,4.84,5.67,2.56l.86-.93c.62-.68.97-1.6.97-2.56v-68.52c0-.69.34-1.32.88-1.67h0c1.18-.74,2.65.19,2.65,1.67v57.43c0,3.22,3.58,4.84,5.67,2.56h0c.62-.68.97-1.6.97-2.56v-63.83c0-.69.34-1.32.88-1.67h0c1.18-.74,2.65.19,2.65,1.67v58.58c0,2,1.49,3.62,3.32,3.62h38.25Z"/>
    <path class="cls-3" d="m60.61,40.57c0,.97-.38,1.85-1,2.48l-.57,1.41v15.85h-.03v22.68c0,.69-.33,1.32-.88,1.67h0c-1.17.74-2.63-.19-2.63-1.67v-38.54c-.2-.49-.37-.92-.57-1.41-.61-.63-.99-1.51-.99-2.48,0-1.91,1.48-3.47,3.33-3.47s3.34,1.56,3.34,3.47Z"/>
  </g>
</svg>